<svg width="269" height="282" viewBox="0 0 269 282" fill="none" xmlns="http://www.w3.org/2000/svg">
<g filter="url(#filter0_d_204_7805)">
<path d="M100.955 41.1835L194.933 24.7665L134.515 157.765L73.7993 167.107L100.955 41.1835Z" fill="#EED658"/>
<path d="M101.343 274L130.368 109.127L213 96.4863L101.343 274Z" fill="#EED658"/>
</g>
<g filter="url(#filter1_dd_204_7805)">
<path d="M39.6328 93.8V93.75C39.5995 90.3833 39.1495 88.35 38.2828 87.65C37.9828 87.4833 37.5661 87.2333 37.0328 86.9C36.6328 86.5 36.4328 85.9333 36.4328 85.2C36.4328 83.8333 37.2995 82.8167 39.0328 82.15C40.4661 81.5833 42.2328 81.3167 44.3328 81.35C44.4995 81.35 44.7495 81.3667 45.0828 81.4C45.3828 81.4 45.6161 81.4 45.7828 81.4C45.5495 81.4 46.6995 81.4 49.2328 81.4C50.3995 81.4 52.1161 81.2667 54.3828 81C56.6495 80.7 58.3161 80.55 59.3828 80.55C60.7828 80.55 61.8828 81.45 62.6828 83.25C63.3161 84.65 63.6328 86.1667 63.6328 87.8C63.6328 88.8333 63.4161 89.7 62.9828 90.4C62.4828 91.2667 61.7661 91.7 60.8328 91.7C60.0328 91.7 59.3495 91.25 58.7828 90.35C57.9495 88.9833 57.3495 88.15 56.9828 87.85C55.9828 86.95 54.5495 86.5167 52.6828 86.55C50.3828 86.6167 49.2328 87.25 49.2328 88.45C49.2328 89.6833 49.7161 90.6333 50.6828 91.3C51.5495 91.8667 52.6328 92.15 53.9328 92.15C54.1995 92.15 54.5495 92 54.9828 91.7C55.4161 91.3667 55.7828 91.2 56.0828 91.2C56.6161 91.2 56.8828 93.1833 56.8828 97.15C56.8828 97.65 56.7328 98.1 56.4328 98.5C56.1328 98.9 55.7328 99.1 55.2328 99.1C54.8661 99.1 54.2828 98.65 53.4828 97.75C52.6828 96.85 51.7995 96.4 50.8328 96.4C50.0661 96.4 49.5828 96.65 49.3828 97.15C49.2828 97.4167 49.2161 98.05 49.1828 99.05C49.0495 103.183 49.3995 107 50.2328 110.5C50.3995 111.267 51.3161 112.433 52.9828 114C54.4828 115.433 55.1828 116.667 55.0828 117.7C54.9828 118.8 53.9161 119.35 51.8828 119.35C51.3495 119.35 50.5661 119.3 49.5328 119.2C48.4995 119.133 47.7661 119.1 47.3328 119.1L37.9328 119.2C36.2328 119.2 35.3828 118.367 35.3828 116.7C35.3828 116.033 35.7828 115.233 36.5828 114.3C37.2161 113.6 37.8495 112.9 38.4828 112.2C39.4161 111.067 39.8661 109.75 39.8328 108.25L39.6328 93.8ZM94.4031 119.15L91.8531 119.25C90.3198 119.45 88.3198 119.517 85.8531 119.45C81.6531 119.35 79.6365 119.3 79.8031 119.3C75.6031 119.3 73.5031 117.733 73.5031 114.6C73.5031 113.9 73.9531 112.633 74.8531 110.8C75.8531 108.8 76.4365 107.35 76.6031 106.45C77.2698 102.45 77.6031 98.5 77.6031 94.6C77.5698 90.7667 77.0698 88.45 76.1031 87.65C75.8031 87.4833 75.3865 87.2333 74.8531 86.9C74.4531 86.5 74.2531 85.9333 74.2531 85.2C74.2531 83.8333 75.1198 82.8167 76.8531 82.15C78.2865 81.5833 80.0531 81.3167 82.1531 81.35C85.1198 81.3833 87.2031 81.7333 88.4031 82.4C89.4365 82.9333 89.9531 83.75 89.9531 84.85C89.9531 85.5167 89.7865 86 89.4531 86.3C89.1531 86.6 88.8365 86.8833 88.5031 87.15C88.1698 87.4167 87.9198 87.7833 87.7531 88.25C87.1531 89.6833 86.8531 91.7 86.8531 94.3C86.8531 97.9333 86.8865 99.95 86.9531 100.35C87.6865 104.917 88.7865 107.2 90.2531 107.2C91.2198 107.2 92.1531 106.9 93.0531 106.3C94.3865 105.433 95.2865 104.9 95.7531 104.7C96.6531 104.333 97.3198 104.15 97.7531 104.15C98.1865 104.15 98.6198 104.3 99.0531 104.6C99.8531 105.167 100.32 105.567 100.453 105.8C100.72 106.333 100.853 107.45 100.853 109.15C100.853 113.383 100.22 116.317 98.9531 117.95C98.2865 118.783 97.3531 119.2 96.1531 119.2C95.9531 119.2 95.6365 119.183 95.2031 119.15C94.8365 119.117 94.5698 119.117 94.4031 119.15ZM149.37 114.4C149.237 116.333 147.837 117.7 145.17 118.5C143.437 119.067 141.32 119.35 138.82 119.35C136.32 119.35 134.52 119.133 133.42 118.7C131.587 118 130.67 116.633 130.67 114.6C130.67 113.833 130.787 112.967 131.02 112C132.52 110.5 133.27 108.2 133.27 105.1C133.27 104.033 132.537 103.217 131.07 102.65C129.97 102.217 128.77 102 127.47 102C127.47 102 127.003 102.083 126.07 102.25C124.837 102.983 124.22 104.383 124.22 106.45C124.22 107.95 124.537 109.25 125.17 110.35C125.437 110.75 126.053 111.467 127.02 112.5C127.653 113.2 127.97 113.85 127.97 114.45C127.97 116.75 126.77 118.233 124.37 118.9C123.203 119.233 121.087 119.4 118.02 119.4C113.42 119.4 111.12 118.25 111.12 115.95C111.087 113.917 111.97 112.267 113.77 111C115.87 109.5 117.72 106.283 119.32 101.35C120.687 97.05 121.37 93.3 121.37 90.1C121.37 88.8667 121.153 87.8333 120.72 87C120.487 86.5333 120.103 86.05 119.57 85.55C119.137 85.15 118.92 84.85 118.92 84.65C118.92 83.55 120.703 82.6 124.27 81.8C127.303 81.1333 129.52 80.8667 130.92 81C133.287 81.2333 135.087 81.95 136.32 83.15C136.887 83.7167 137.72 85.0167 138.82 87.05C139.153 87.7167 139.57 89.0167 140.07 90.95C142.003 98.65 143.953 104.45 145.92 108.35C146.187 108.917 146.687 109.5 147.42 110.1C148.153 110.667 148.637 111.133 148.87 111.5C149.27 112.2 149.437 113.167 149.37 114.4ZM131.67 95.2C131.67 94.9333 131.37 94.05 130.77 92.55C130.203 91.1833 129.453 90.5 128.52 90.5C127.953 90.5 127.353 91.2167 126.72 92.65C126.187 93.8833 125.92 94.8333 125.92 95.5C125.92 95.8 126.353 95.95 127.22 95.95C127.42 95.95 127.753 95.9333 128.22 95.9C128.687 95.8333 129.02 95.8 129.22 95.8C129.887 95.8 130.303 95.85 130.47 95.95C131.27 95.8833 131.67 95.6333 131.67 95.2ZM168.12 105.8C170.42 105.8 171.57 104.7 171.57 102.5C171.57 101.767 170.803 100.75 169.27 99.45C166.97 97.45 165.586 96.1833 165.12 95.65C163.586 93.95 162.82 92.25 162.82 90.55C162.82 87.5167 164.036 85.1167 166.47 83.35C168.636 81.7833 171.286 81 174.42 81C175.42 81 176.853 81.1833 178.72 81.55C180.62 81.9167 182.086 82.1 183.12 82.1C184.92 82.1 185.82 84.1667 185.82 88.3C185.82 90.6667 184.886 91.85 183.02 91.85C181.72 91.85 180.47 90.9 179.27 89C178.103 87.1 176.97 86.15 175.87 86.15C173.436 86.15 172.22 87.0333 172.22 88.8C172.22 89.8333 173.586 91 176.32 92.3C180.02 94.0333 182.536 95.4833 183.87 96.65C186.603 99.0167 187.97 102.05 187.97 105.75C187.97 109.783 186.653 113.1 184.02 115.7C181.42 118.3 178.12 119.6 174.12 119.6C170.02 119.6 166.686 118.6 164.12 116.6C161.286 114.433 159.87 111.35 159.87 107.35C159.87 105.35 160.903 104.35 162.97 104.35C163.636 104.35 164.32 104.6 165.02 105.1C165.753 105.567 166.786 105.8 168.12 105.8ZM217.679 113.7C217.679 116.1 217.046 117.733 215.779 118.6C214.846 119.267 213.296 119.6 211.129 119.6C210.729 119.6 210.063 119.583 209.129 119.55C208.229 119.517 207.529 119.5 207.029 119.5C203.863 119.5 201.746 119.3 200.679 118.9C198.713 118.167 197.729 116.55 197.729 114.05C197.729 113.55 198.029 113 198.629 112.4C199.429 111.667 199.879 111.183 199.979 110.95C200.879 109.283 201.613 105.9 202.179 100.8C202.679 96.1 202.979 93.75 203.079 93.75L203.129 91.85C203.163 90.0833 202.913 88.8333 202.379 88.1C202.246 87.9333 201.729 87.5833 200.829 87.05C200.263 86.7167 199.979 86.1 199.979 85.2C199.979 83.7667 200.913 82.7167 202.779 82.05C204.079 81.5833 205.646 81.35 207.479 81.35C212.946 81.35 215.679 82.5167 215.679 84.85C215.679 85.55 215.229 86.3333 214.329 87.2C213.429 88.0667 212.979 88.9833 212.979 89.95C212.979 91.25 213.463 92.0833 214.429 92.45C214.896 92.6167 215.929 92.7 217.529 92.7C219.063 92.7 219.996 92.65 220.329 92.55C221.296 92.2833 221.779 91.6 221.779 90.5C221.779 88.9333 221.313 87.9 220.379 87.4C219.479 86.8667 219.029 86.1333 219.029 85.2C219.029 83.7667 219.946 82.7167 221.779 82.05C223.113 81.5833 224.679 81.35 226.479 81.35C231.946 81.35 234.679 82.5167 234.679 84.85C234.679 85.2833 234.413 85.8333 233.879 86.5C233.179 87.3667 232.679 88.2 232.379 89C231.846 90.4 231.579 92.2167 231.579 94.45C231.579 98.9167 232.546 104.317 234.479 110.65C236.346 112.65 237.279 114.267 237.279 115.5C237.279 118 233.963 119.25 227.329 119.25C224.196 119.25 222.313 119.183 221.679 119.05C219.546 118.55 218.479 117.3 218.479 115.3C218.479 114.6 218.896 113.867 219.729 113.1C220.563 112.3 220.979 111.7 220.979 111.3C220.979 110.167 220.846 108.467 220.579 106.2C220.313 103.933 220.179 102.217 220.179 101.05C220.179 100.25 220.046 99.6833 219.779 99.35C219.546 98.9833 219.029 98.8 218.229 98.8C216.563 98.8 215.546 99.3167 215.179 100.35C214.979 100.817 214.879 102.1 214.879 104.2C214.879 107.233 214.963 109.05 215.129 109.65C215.263 110.117 215.746 110.8 216.579 111.7C217.313 112.467 217.679 113.133 217.679 113.7ZM67.099 171.8C69.399 171.8 70.549 170.7 70.549 168.5C70.549 167.767 69.7824 166.75 68.249 165.45C65.949 163.45 64.5657 162.183 64.099 161.65C62.5657 159.95 61.799 158.25 61.799 156.55C61.799 153.517 63.0157 151.117 65.449 149.35C67.6157 147.783 70.2657 147 73.399 147C74.399 147 75.8324 147.183 77.699 147.55C79.599 147.917 81.0657 148.1 82.099 148.1C83.899 148.1 84.799 150.167 84.799 154.3C84.799 156.667 83.8657 157.85 81.999 157.85C80.699 157.85 79.449 156.9 78.249 155C77.0824 153.1 75.949 152.15 74.849 152.15C72.4157 152.15 71.199 153.033 71.199 154.8C71.199 155.833 72.5657 157 75.299 158.3C78.999 160.033 81.5157 161.483 82.849 162.65C85.5824 165.017 86.949 168.05 86.949 171.75C86.949 175.783 85.6324 179.1 82.999 181.7C80.399 184.3 77.099 185.6 73.099 185.6C68.999 185.6 65.6657 184.6 63.099 182.6C60.2657 180.433 58.849 177.35 58.849 173.35C58.849 171.35 59.8824 170.35 61.949 170.35C62.6157 170.35 63.299 170.6 63.999 171.1C64.7324 171.567 65.7657 171.8 67.099 171.8ZM135.709 180.4C135.575 182.333 134.175 183.7 131.509 184.5C129.775 185.067 127.659 185.35 125.159 185.35C122.659 185.35 120.859 185.133 119.759 184.7C117.925 184 117.009 182.633 117.009 180.6C117.009 179.833 117.125 178.967 117.359 178C118.859 176.5 119.609 174.2 119.609 171.1C119.609 170.033 118.875 169.217 117.409 168.65C116.309 168.217 115.109 168 113.809 168C113.809 168 113.342 168.083 112.409 168.25C111.175 168.983 110.559 170.383 110.559 172.45C110.559 173.95 110.875 175.25 111.509 176.35C111.775 176.75 112.392 177.467 113.359 178.5C113.992 179.2 114.309 179.85 114.309 180.45C114.309 182.75 113.109 184.233 110.709 184.9C109.542 185.233 107.425 185.4 104.359 185.4C99.7588 185.4 97.4588 184.25 97.4588 181.95C97.4255 179.917 98.3088 178.267 100.109 177C102.209 175.5 104.059 172.283 105.659 167.35C107.025 163.05 107.709 159.3 107.709 156.1C107.709 154.867 107.492 153.833 107.059 153C106.825 152.533 106.442 152.05 105.909 151.55C105.475 151.15 105.259 150.85 105.259 150.65C105.259 149.55 107.042 148.6 110.609 147.8C113.642 147.133 115.859 146.867 117.259 147C119.625 147.233 121.425 147.95 122.659 149.15C123.225 149.717 124.059 151.017 125.159 153.05C125.492 153.717 125.909 155.017 126.409 156.95C128.342 164.65 130.292 170.45 132.259 174.35C132.525 174.917 133.025 175.5 133.759 176.1C134.492 176.667 134.975 177.133 135.209 177.5C135.609 178.2 135.775 179.167 135.709 180.4ZM118.009 161.2C118.009 160.933 117.709 160.05 117.109 158.55C116.542 157.183 115.792 156.5 114.859 156.5C114.292 156.5 113.692 157.217 113.059 158.65C112.525 159.883 112.259 160.833 112.259 161.5C112.259 161.8 112.692 161.95 113.559 161.95C113.759 161.95 114.092 161.933 114.559 161.9C115.025 161.833 115.359 161.8 115.559 161.8C116.225 161.8 116.642 161.85 116.809 161.95C117.609 161.883 118.009 161.633 118.009 161.2ZM167.808 185.15L165.258 185.25C163.725 185.45 161.725 185.517 159.258 185.45C155.058 185.35 153.042 185.3 153.208 185.3C149.008 185.3 146.908 183.733 146.908 180.6C146.908 179.9 147.358 178.633 148.258 176.8C149.258 174.8 149.842 173.35 150.008 172.45C150.675 168.45 151.008 164.5 151.008 160.6C150.975 156.767 150.475 154.45 149.508 153.65C149.208 153.483 148.792 153.233 148.258 152.9C147.858 152.5 147.658 151.933 147.658 151.2C147.658 149.833 148.525 148.817 150.258 148.15C151.692 147.583 153.458 147.317 155.558 147.35C158.525 147.383 160.608 147.733 161.808 148.4C162.842 148.933 163.358 149.75 163.358 150.85C163.358 151.517 163.192 152 162.858 152.3C162.558 152.6 162.242 152.883 161.908 153.15C161.575 153.417 161.325 153.783 161.158 154.25C160.558 155.683 160.258 157.7 160.258 160.3C160.258 163.933 160.292 165.95 160.358 166.35C161.092 170.917 162.192 173.2 163.658 173.2C164.625 173.2 165.558 172.9 166.458 172.3C167.792 171.433 168.692 170.9 169.158 170.7C170.058 170.333 170.725 170.15 171.158 170.15C171.592 170.15 172.025 170.3 172.458 170.6C173.258 171.167 173.725 171.567 173.858 171.8C174.125 172.333 174.258 173.45 174.258 175.15C174.258 179.383 173.625 182.317 172.358 183.95C171.692 184.783 170.758 185.2 169.558 185.2C169.358 185.2 169.042 185.183 168.608 185.15C168.242 185.117 167.975 185.117 167.808 185.15ZM188.675 156.95C188.475 155.217 188.075 154.117 187.475 153.65C187.175 153.483 186.759 153.233 186.225 152.9C185.825 152.5 185.625 151.933 185.625 151.2C185.625 149.833 186.492 148.817 188.225 148.15C189.659 147.583 191.425 147.317 193.525 147.35C193.925 147.35 194.525 147.383 195.325 147.45C196.159 147.517 196.792 147.55 197.225 147.55C198.359 147.55 200.209 147.467 202.775 147.3C205.342 147.133 207.159 147.05 208.225 147.05C209.659 147.05 210.775 147.95 211.575 149.75C212.175 151.15 212.475 152.667 212.475 154.3C212.475 155.333 212.275 156.2 211.875 156.9C211.342 157.767 210.609 158.2 209.675 158.2C208.775 158.2 208.009 157.783 207.375 156.95C206.442 155.717 205.725 154.933 205.225 154.6C203.992 153.733 202.175 153.3 199.775 153.3C199.075 153.3 198.709 153.3 198.675 153.3C198.342 153.433 198.109 153.833 197.975 154.5C197.909 154.733 197.875 154.967 197.875 155.2C197.875 156.3 198.425 157.2 199.525 157.9C200.492 158.5 201.642 158.8 202.975 158.8C203.242 158.8 203.559 158.617 203.925 158.25C204.325 157.883 204.659 157.7 204.925 157.7C205.425 157.7 205.675 158.067 205.675 158.8C205.675 159.967 205.525 161.083 205.225 162.15C204.792 163.65 204.159 164.4 203.325 164.4C202.792 164.4 202.275 163.983 201.775 163.15C201.309 162.317 200.609 161.9 199.675 161.9C198.609 161.9 198.075 162.783 198.075 164.55C198.075 168.717 200.492 170.8 205.325 170.8C205.525 170.8 205.842 170.75 206.275 170.65C206.709 170.55 207.042 170.533 207.275 170.6C207.509 170.633 207.709 170.65 207.875 170.65C208.709 170.65 209.392 170.25 209.925 169.45C210.492 168.65 210.942 168.25 211.275 168.25C211.775 168.25 212.209 168.583 212.575 169.25C212.942 169.917 213.125 170.533 213.125 171.1C213.125 171.433 213.159 172.3 213.225 173.7C213.325 175.067 213.375 176.2 213.375 177.1C213.375 181.167 212.542 183.8 210.875 185C210.242 185.433 208.125 185.65 204.525 185.65C203.525 185.65 202.159 185.667 200.425 185.7C198.992 185.733 197.592 185.733 196.225 185.7L186.825 185.65C185.125 185.617 184.275 184.8 184.275 183.2C184.275 182.567 184.525 182 185.025 181.5C185.859 180.667 186.325 180.15 186.425 179.95L187.375 178.45C187.842 177.683 188.125 175.783 188.225 172.75L188.625 159.85C188.692 158.75 188.709 157.783 188.675 156.95Z" fill="#FFDDDD"/>
</g>
<g filter="url(#filter2_dd_204_7805)">
<path d="M35.6328 95.8V95.75C35.5995 92.3833 35.1495 90.35 34.2828 89.65C33.9828 89.4833 33.5661 89.2333 33.0328 88.9C32.6328 88.5 32.4328 87.9333 32.4328 87.2C32.4328 85.8333 33.2995 84.8167 35.0328 84.15C36.4661 83.5833 38.2328 83.3167 40.3328 83.35C40.4995 83.35 40.7495 83.3667 41.0828 83.4C41.3828 83.4 41.6161 83.4 41.7828 83.4C41.5495 83.4 42.6995 83.4 45.2328 83.4C46.3995 83.4 48.1161 83.2667 50.3828 83C52.6495 82.7 54.3161 82.55 55.3828 82.55C56.7828 82.55 57.8828 83.45 58.6828 85.25C59.3161 86.65 59.6328 88.1667 59.6328 89.8C59.6328 90.8333 59.4161 91.7 58.9828 92.4C58.4828 93.2667 57.7661 93.7 56.8328 93.7C56.0328 93.7 55.3495 93.25 54.7828 92.35C53.9495 90.9833 53.3495 90.15 52.9828 89.85C51.9828 88.95 50.5495 88.5167 48.6828 88.55C46.3828 88.6167 45.2328 89.25 45.2328 90.45C45.2328 91.6833 45.7161 92.6333 46.6828 93.3C47.5495 93.8667 48.6328 94.15 49.9328 94.15C50.1995 94.15 50.5495 94 50.9828 93.7C51.4161 93.3667 51.7828 93.2 52.0828 93.2C52.6161 93.2 52.8828 95.1833 52.8828 99.15C52.8828 99.65 52.7328 100.1 52.4328 100.5C52.1328 100.9 51.7328 101.1 51.2328 101.1C50.8661 101.1 50.2828 100.65 49.4828 99.75C48.6828 98.85 47.7995 98.4 46.8328 98.4C46.0661 98.4 45.5828 98.65 45.3828 99.15C45.2828 99.4167 45.2161 100.05 45.1828 101.05C45.0495 105.183 45.3995 109 46.2328 112.5C46.3995 113.267 47.3161 114.433 48.9828 116C50.4828 117.433 51.1828 118.667 51.0828 119.7C50.9828 120.8 49.9161 121.35 47.8828 121.35C47.3495 121.35 46.5661 121.3 45.5328 121.2C44.4995 121.133 43.7661 121.1 43.3328 121.1L33.9328 121.2C32.2328 121.2 31.3828 120.367 31.3828 118.7C31.3828 118.033 31.7828 117.233 32.5828 116.3C33.2161 115.6 33.8495 114.9 34.4828 114.2C35.4161 113.067 35.8661 111.75 35.8328 110.25L35.6328 95.8ZM90.4031 121.15L87.8531 121.25C86.3198 121.45 84.3198 121.517 81.8531 121.45C77.6531 121.35 75.6365 121.3 75.8031 121.3C71.6031 121.3 69.5031 119.733 69.5031 116.6C69.5031 115.9 69.9531 114.633 70.8531 112.8C71.8531 110.8 72.4365 109.35 72.6031 108.45C73.2698 104.45 73.6031 100.5 73.6031 96.6C73.5698 92.7667 73.0698 90.45 72.1031 89.65C71.8031 89.4833 71.3865 89.2333 70.8531 88.9C70.4531 88.5 70.2531 87.9333 70.2531 87.2C70.2531 85.8333 71.1198 84.8167 72.8531 84.15C74.2865 83.5833 76.0531 83.3167 78.1531 83.35C81.1198 83.3833 83.2031 83.7333 84.4031 84.4C85.4365 84.9333 85.9531 85.75 85.9531 86.85C85.9531 87.5167 85.7865 88 85.4531 88.3C85.1531 88.6 84.8365 88.8833 84.5031 89.15C84.1698 89.4167 83.9198 89.7833 83.7531 90.25C83.1531 91.6833 82.8531 93.7 82.8531 96.3C82.8531 99.9333 82.8865 101.95 82.9531 102.35C83.6865 106.917 84.7865 109.2 86.2531 109.2C87.2198 109.2 88.1531 108.9 89.0531 108.3C90.3865 107.433 91.2865 106.9 91.7531 106.7C92.6531 106.333 93.3198 106.15 93.7531 106.15C94.1865 106.15 94.6198 106.3 95.0531 106.6C95.8531 107.167 96.3198 107.567 96.4531 107.8C96.7198 108.333 96.8531 109.45 96.8531 111.15C96.8531 115.383 96.2198 118.317 94.9531 119.95C94.2865 120.783 93.3531 121.2 92.1531 121.2C91.9531 121.2 91.6365 121.183 91.2031 121.15C90.8365 121.117 90.5698 121.117 90.4031 121.15ZM145.37 116.4C145.237 118.333 143.837 119.7 141.17 120.5C139.437 121.067 137.32 121.35 134.82 121.35C132.32 121.35 130.52 121.133 129.42 120.7C127.587 120 126.67 118.633 126.67 116.6C126.67 115.833 126.787 114.967 127.02 114C128.52 112.5 129.27 110.2 129.27 107.1C129.27 106.033 128.537 105.217 127.07 104.65C125.97 104.217 124.77 104 123.47 104C123.47 104 123.003 104.083 122.07 104.25C120.837 104.983 120.22 106.383 120.22 108.45C120.22 109.95 120.537 111.25 121.17 112.35C121.437 112.75 122.053 113.467 123.02 114.5C123.653 115.2 123.97 115.85 123.97 116.45C123.97 118.75 122.77 120.233 120.37 120.9C119.203 121.233 117.087 121.4 114.02 121.4C109.42 121.4 107.12 120.25 107.12 117.95C107.087 115.917 107.97 114.267 109.77 113C111.87 111.5 113.72 108.283 115.32 103.35C116.687 99.05 117.37 95.3 117.37 92.1C117.37 90.8667 117.153 89.8333 116.72 89C116.487 88.5333 116.103 88.05 115.57 87.55C115.137 87.15 114.92 86.85 114.92 86.65C114.92 85.55 116.703 84.6 120.27 83.8C123.303 83.1333 125.52 82.8667 126.92 83C129.287 83.2333 131.087 83.95 132.32 85.15C132.887 85.7167 133.72 87.0167 134.82 89.05C135.153 89.7167 135.57 91.0167 136.07 92.95C138.003 100.65 139.953 106.45 141.92 110.35C142.187 110.917 142.687 111.5 143.42 112.1C144.153 112.667 144.637 113.133 144.87 113.5C145.27 114.2 145.437 115.167 145.37 116.4ZM127.67 97.2C127.67 96.9333 127.37 96.05 126.77 94.55C126.203 93.1833 125.453 92.5 124.52 92.5C123.953 92.5 123.353 93.2167 122.72 94.65C122.187 95.8833 121.92 96.8333 121.92 97.5C121.92 97.8 122.353 97.95 123.22 97.95C123.42 97.95 123.753 97.9333 124.22 97.9C124.687 97.8333 125.02 97.8 125.22 97.8C125.887 97.8 126.303 97.85 126.47 97.95C127.27 97.8833 127.67 97.6333 127.67 97.2ZM164.12 107.8C166.42 107.8 167.57 106.7 167.57 104.5C167.57 103.767 166.803 102.75 165.27 101.45C162.97 99.45 161.586 98.1833 161.12 97.65C159.586 95.95 158.82 94.25 158.82 92.55C158.82 89.5167 160.036 87.1167 162.47 85.35C164.636 83.7833 167.286 83 170.42 83C171.42 83 172.853 83.1833 174.72 83.55C176.62 83.9167 178.086 84.1 179.12 84.1C180.92 84.1 181.82 86.1667 181.82 90.3C181.82 92.6667 180.886 93.85 179.02 93.85C177.72 93.85 176.47 92.9 175.27 91C174.103 89.1 172.97 88.15 171.87 88.15C169.436 88.15 168.22 89.0333 168.22 90.8C168.22 91.8333 169.586 93 172.32 94.3C176.02 96.0333 178.536 97.4833 179.87 98.65C182.603 101.017 183.97 104.05 183.97 107.75C183.97 111.783 182.653 115.1 180.02 117.7C177.42 120.3 174.12 121.6 170.12 121.6C166.02 121.6 162.686 120.6 160.12 118.6C157.286 116.433 155.87 113.35 155.87 109.35C155.87 107.35 156.903 106.35 158.97 106.35C159.636 106.35 160.32 106.6 161.02 107.1C161.753 107.567 162.786 107.8 164.12 107.8ZM213.679 115.7C213.679 118.1 213.046 119.733 211.779 120.6C210.846 121.267 209.296 121.6 207.129 121.6C206.729 121.6 206.063 121.583 205.129 121.55C204.229 121.517 203.529 121.5 203.029 121.5C199.863 121.5 197.746 121.3 196.679 120.9C194.713 120.167 193.729 118.55 193.729 116.05C193.729 115.55 194.029 115 194.629 114.4C195.429 113.667 195.879 113.183 195.979 112.95C196.879 111.283 197.613 107.9 198.179 102.8C198.679 98.1 198.979 95.75 199.079 95.75L199.129 93.85C199.163 92.0833 198.913 90.8333 198.379 90.1C198.246 89.9333 197.729 89.5833 196.829 89.05C196.263 88.7167 195.979 88.1 195.979 87.2C195.979 85.7667 196.913 84.7167 198.779 84.05C200.079 83.5833 201.646 83.35 203.479 83.35C208.946 83.35 211.679 84.5167 211.679 86.85C211.679 87.55 211.229 88.3333 210.329 89.2C209.429 90.0667 208.979 90.9833 208.979 91.95C208.979 93.25 209.463 94.0833 210.429 94.45C210.896 94.6167 211.929 94.7 213.529 94.7C215.063 94.7 215.996 94.65 216.329 94.55C217.296 94.2833 217.779 93.6 217.779 92.5C217.779 90.9333 217.313 89.9 216.379 89.4C215.479 88.8667 215.029 88.1333 215.029 87.2C215.029 85.7667 215.946 84.7167 217.779 84.05C219.113 83.5833 220.679 83.35 222.479 83.35C227.946 83.35 230.679 84.5167 230.679 86.85C230.679 87.2833 230.413 87.8333 229.879 88.5C229.179 89.3667 228.679 90.2 228.379 91C227.846 92.4 227.579 94.2167 227.579 96.45C227.579 100.917 228.546 106.317 230.479 112.65C232.346 114.65 233.279 116.267 233.279 117.5C233.279 120 229.963 121.25 223.329 121.25C220.196 121.25 218.313 121.183 217.679 121.05C215.546 120.55 214.479 119.3 214.479 117.3C214.479 116.6 214.896 115.867 215.729 115.1C216.563 114.3 216.979 113.7 216.979 113.3C216.979 112.167 216.846 110.467 216.579 108.2C216.313 105.933 216.179 104.217 216.179 103.05C216.179 102.25 216.046 101.683 215.779 101.35C215.546 100.983 215.029 100.8 214.229 100.8C212.563 100.8 211.546 101.317 211.179 102.35C210.979 102.817 210.879 104.1 210.879 106.2C210.879 109.233 210.963 111.05 211.129 111.65C211.263 112.117 211.746 112.8 212.579 113.7C213.313 114.467 213.679 115.133 213.679 115.7ZM63.099 173.8C65.399 173.8 66.549 172.7 66.549 170.5C66.549 169.767 65.7824 168.75 64.249 167.45C61.949 165.45 60.5657 164.183 60.099 163.65C58.5657 161.95 57.799 160.25 57.799 158.55C57.799 155.517 59.0157 153.117 61.449 151.35C63.6157 149.783 66.2657 149 69.399 149C70.399 149 71.8324 149.183 73.699 149.55C75.599 149.917 77.0657 150.1 78.099 150.1C79.899 150.1 80.799 152.167 80.799 156.3C80.799 158.667 79.8657 159.85 77.999 159.85C76.699 159.85 75.449 158.9 74.249 157C73.0824 155.1 71.949 154.15 70.849 154.15C68.4157 154.15 67.199 155.033 67.199 156.8C67.199 157.833 68.5657 159 71.299 160.3C74.999 162.033 77.5157 163.483 78.849 164.65C81.5824 167.017 82.949 170.05 82.949 173.75C82.949 177.783 81.6324 181.1 78.999 183.7C76.399 186.3 73.099 187.6 69.099 187.6C64.999 187.6 61.6657 186.6 59.099 184.6C56.2657 182.433 54.849 179.35 54.849 175.35C54.849 173.35 55.8824 172.35 57.949 172.35C58.6157 172.35 59.299 172.6 59.999 173.1C60.7324 173.567 61.7657 173.8 63.099 173.8ZM131.709 182.4C131.575 184.333 130.175 185.7 127.509 186.5C125.775 187.067 123.659 187.35 121.159 187.35C118.659 187.35 116.859 187.133 115.759 186.7C113.925 186 113.009 184.633 113.009 182.6C113.009 181.833 113.125 180.967 113.359 180C114.859 178.5 115.609 176.2 115.609 173.1C115.609 172.033 114.875 171.217 113.409 170.65C112.309 170.217 111.109 170 109.809 170C109.809 170 109.342 170.083 108.409 170.25C107.175 170.983 106.559 172.383 106.559 174.45C106.559 175.95 106.875 177.25 107.509 178.35C107.775 178.75 108.392 179.467 109.359 180.5C109.992 181.2 110.309 181.85 110.309 182.45C110.309 184.75 109.109 186.233 106.709 186.9C105.542 187.233 103.425 187.4 100.359 187.4C95.7588 187.4 93.4588 186.25 93.4588 183.95C93.4255 181.917 94.3088 180.267 96.1088 179C98.2088 177.5 100.059 174.283 101.659 169.35C103.025 165.05 103.709 161.3 103.709 158.1C103.709 156.867 103.492 155.833 103.059 155C102.825 154.533 102.442 154.05 101.909 153.55C101.475 153.15 101.259 152.85 101.259 152.65C101.259 151.55 103.042 150.6 106.609 149.8C109.642 149.133 111.859 148.867 113.259 149C115.625 149.233 117.425 149.95 118.659 151.15C119.225 151.717 120.059 153.017 121.159 155.05C121.492 155.717 121.909 157.017 122.409 158.95C124.342 166.65 126.292 172.45 128.259 176.35C128.525 176.917 129.025 177.5 129.759 178.1C130.492 178.667 130.975 179.133 131.209 179.5C131.609 180.2 131.775 181.167 131.709 182.4ZM114.009 163.2C114.009 162.933 113.709 162.05 113.109 160.55C112.542 159.183 111.792 158.5 110.859 158.5C110.292 158.5 109.692 159.217 109.059 160.65C108.525 161.883 108.259 162.833 108.259 163.5C108.259 163.8 108.692 163.95 109.559 163.95C109.759 163.95 110.092 163.933 110.559 163.9C111.025 163.833 111.359 163.8 111.559 163.8C112.225 163.8 112.642 163.85 112.809 163.95C113.609 163.883 114.009 163.633 114.009 163.2ZM163.808 187.15L161.258 187.25C159.725 187.45 157.725 187.517 155.258 187.45C151.058 187.35 149.042 187.3 149.208 187.3C145.008 187.3 142.908 185.733 142.908 182.6C142.908 181.9 143.358 180.633 144.258 178.8C145.258 176.8 145.842 175.35 146.008 174.45C146.675 170.45 147.008 166.5 147.008 162.6C146.975 158.767 146.475 156.45 145.508 155.65C145.208 155.483 144.792 155.233 144.258 154.9C143.858 154.5 143.658 153.933 143.658 153.2C143.658 151.833 144.525 150.817 146.258 150.15C147.692 149.583 149.458 149.317 151.558 149.35C154.525 149.383 156.608 149.733 157.808 150.4C158.842 150.933 159.358 151.75 159.358 152.85C159.358 153.517 159.192 154 158.858 154.3C158.558 154.6 158.242 154.883 157.908 155.15C157.575 155.417 157.325 155.783 157.158 156.25C156.558 157.683 156.258 159.7 156.258 162.3C156.258 165.933 156.292 167.95 156.358 168.35C157.092 172.917 158.192 175.2 159.658 175.2C160.625 175.2 161.558 174.9 162.458 174.3C163.792 173.433 164.692 172.9 165.158 172.7C166.058 172.333 166.725 172.15 167.158 172.15C167.592 172.15 168.025 172.3 168.458 172.6C169.258 173.167 169.725 173.567 169.858 173.8C170.125 174.333 170.258 175.45 170.258 177.15C170.258 181.383 169.625 184.317 168.358 185.95C167.692 186.783 166.758 187.2 165.558 187.2C165.358 187.2 165.042 187.183 164.608 187.15C164.242 187.117 163.975 187.117 163.808 187.15ZM184.675 158.95C184.475 157.217 184.075 156.117 183.475 155.65C183.175 155.483 182.759 155.233 182.225 154.9C181.825 154.5 181.625 153.933 181.625 153.2C181.625 151.833 182.492 150.817 184.225 150.15C185.659 149.583 187.425 149.317 189.525 149.35C189.925 149.35 190.525 149.383 191.325 149.45C192.159 149.517 192.792 149.55 193.225 149.55C194.359 149.55 196.209 149.467 198.775 149.3C201.342 149.133 203.159 149.05 204.225 149.05C205.659 149.05 206.775 149.95 207.575 151.75C208.175 153.15 208.475 154.667 208.475 156.3C208.475 157.333 208.275 158.2 207.875 158.9C207.342 159.767 206.609 160.2 205.675 160.2C204.775 160.2 204.009 159.783 203.375 158.95C202.442 157.717 201.725 156.933 201.225 156.6C199.992 155.733 198.175 155.3 195.775 155.3C195.075 155.3 194.709 155.3 194.675 155.3C194.342 155.433 194.109 155.833 193.975 156.5C193.909 156.733 193.875 156.967 193.875 157.2C193.875 158.3 194.425 159.2 195.525 159.9C196.492 160.5 197.642 160.8 198.975 160.8C199.242 160.8 199.559 160.617 199.925 160.25C200.325 159.883 200.659 159.7 200.925 159.7C201.425 159.7 201.675 160.067 201.675 160.8C201.675 161.967 201.525 163.083 201.225 164.15C200.792 165.65 200.159 166.4 199.325 166.4C198.792 166.4 198.275 165.983 197.775 165.15C197.309 164.317 196.609 163.9 195.675 163.9C194.609 163.9 194.075 164.783 194.075 166.55C194.075 170.717 196.492 172.8 201.325 172.8C201.525 172.8 201.842 172.75 202.275 172.65C202.709 172.55 203.042 172.533 203.275 172.6C203.509 172.633 203.709 172.65 203.875 172.65C204.709 172.65 205.392 172.25 205.925 171.45C206.492 170.65 206.942 170.25 207.275 170.25C207.775 170.25 208.209 170.583 208.575 171.25C208.942 171.917 209.125 172.533 209.125 173.1C209.125 173.433 209.159 174.3 209.225 175.7C209.325 177.067 209.375 178.2 209.375 179.1C209.375 183.167 208.542 185.8 206.875 187C206.242 187.433 204.125 187.65 200.525 187.65C199.525 187.65 198.159 187.667 196.425 187.7C194.992 187.733 193.592 187.733 192.225 187.7L182.825 187.65C181.125 187.617 180.275 186.8 180.275 185.2C180.275 184.567 180.525 184 181.025 183.5C181.859 182.667 182.325 182.15 182.425 181.95L183.375 180.45C183.842 179.683 184.125 177.783 184.225 174.75L184.625 161.85C184.692 160.75 184.709 159.783 184.675 158.95Z" fill="#180000"/>
</g>
<defs>
<filter id="filter0_d_204_7805" x="53" y="0" width="164" height="282" filterUnits="userSpaceOnUse" color-interpolation-filters="sRGB">
<feFlood flood-opacity="0" result="BackgroundImageFix"/>
<feColorMatrix in="SourceAlpha" type="matrix" values="0 0 0 0 0 0 0 0 0 0 0 0 0 0 0 0 0 0 127 0" result="hardAlpha"/>
<feOffset dy="4"/>
<feGaussianBlur stdDeviation="2"/>
<feComposite in2="hardAlpha" operator="out"/>
<feColorMatrix type="matrix" values="0 0 0 0 0 0 0 0 0 0 0 0 0 0 0 0 0 0 0.25 0"/>
<feBlend mode="normal" in2="BackgroundImageFix" result="effect1_dropShadow_204_7805"/>
<feBlend mode="normal" in="SourceGraphic" in2="effect1_dropShadow_204_7805" result="shape"/>
</filter>
<filter id="filter1_dd_204_7805" x="31.3828" y="80.55" width="209.896" height="113.2" filterUnits="userSpaceOnUse" color-interpolation-filters="sRGB">
<feFlood flood-opacity="0" result="BackgroundImageFix"/>
<feColorMatrix in="SourceAlpha" type="matrix" values="0 0 0 0 0 0 0 0 0 0 0 0 0 0 0 0 0 0 127 0" result="hardAlpha"/>
<feOffset dy="4"/>
<feGaussianBlur stdDeviation="2"/>
<feComposite in2="hardAlpha" operator="out"/>
<feColorMatrix type="matrix" values="0 0 0 0 0 0 0 0 0 0 0 0 0 0 0 0 0 0 0.25 0"/>
<feBlend mode="normal" in2="BackgroundImageFix" result="effect1_dropShadow_204_7805"/>
<feColorMatrix in="SourceAlpha" type="matrix" values="0 0 0 0 0 0 0 0 0 0 0 0 0 0 0 0 0 0 127 0" result="hardAlpha"/>
<feOffset dy="4"/>
<feGaussianBlur stdDeviation="2"/>
<feComposite in2="hardAlpha" operator="out"/>
<feColorMatrix type="matrix" values="0 0 0 0 0 0 0 0 0 0 0 0 0 0 0 0 0 0 0.25 0"/>
<feBlend mode="normal" in2="effect1_dropShadow_204_7805" result="effect2_dropShadow_204_7805"/>
<feBlend mode="normal" in="SourceGraphic" in2="effect2_dropShadow_204_7805" result="shape"/>
</filter>
<filter id="filter2_dd_204_7805" x="27.3828" y="82.55" width="209.896" height="113.2" filterUnits="userSpaceOnUse" color-interpolation-filters="sRGB">
<feFlood flood-opacity="0" result="BackgroundImageFix"/>
<feColorMatrix in="SourceAlpha" type="matrix" values="0 0 0 0 0 0 0 0 0 0 0 0 0 0 0 0 0 0 127 0" result="hardAlpha"/>
<feOffset dy="4"/>
<feGaussianBlur stdDeviation="2"/>
<feComposite in2="hardAlpha" operator="out"/>
<feColorMatrix type="matrix" values="0 0 0 0 0 0 0 0 0 0 0 0 0 0 0 0 0 0 0.25 0"/>
<feBlend mode="normal" in2="BackgroundImageFix" result="effect1_dropShadow_204_7805"/>
<feColorMatrix in="SourceAlpha" type="matrix" values="0 0 0 0 0 0 0 0 0 0 0 0 0 0 0 0 0 0 127 0" result="hardAlpha"/>
<feOffset dy="4"/>
<feGaussianBlur stdDeviation="2"/>
<feComposite in2="hardAlpha" operator="out"/>
<feColorMatrix type="matrix" values="0 0 0 0 0 0 0 0 0 0 0 0 0 0 0 0 0 0 0.25 0"/>
<feBlend mode="normal" in2="effect1_dropShadow_204_7805" result="effect2_dropShadow_204_7805"/>
<feBlend mode="normal" in="SourceGraphic" in2="effect2_dropShadow_204_7805" result="shape"/>
</filter>
</defs>
</svg>
