<svg width="279" height="263" viewBox="0 0 279 263" fill="none" xmlns="http://www.w3.org/2000/svg">
<path d="M128.33 50.9574C132.319 47.7481 137.387 46.1905 142.489 46.6055L214.203 52.4383C225.63 53.3677 233.939 63.694 232.4 75.0555L222.748 146.355C222.061 151.428 219.455 156.045 215.467 159.255L102.719 249.972C94.1128 256.896 81.5231 255.533 74.5988 246.927L12.5377 169.795C5.61336 161.189 6.97653 148.599 15.5824 141.675L128.33 50.9574Z" fill="#FF4848"/>
<path d="M156.621 63.9292L183.797 65.0378L183.654 68.5349L197.242 69.0891C199.695 69.1892 201.975 69.8114 204 70.8337L205.578 67.7094C210.713 70.3026 214.516 75.0285 215.949 80.6L212.56 81.4723C213.125 83.6688 213.245 86.0298 212.817 88.4473L210.451 101.839L213.897 102.448L209.163 129.231L205.717 128.622L203.35 142.014C202.655 145.947 200.557 149.494 197.445 151.997L185.48 161.624L187.674 164.351L163.745 183.605L161.551 180.878L137.621 200.132L139.815 202.859L115.886 222.113L113.692 219.386L101.727 229.013C99.9786 230.419 98.039 231.407 96.0226 231.997L97.0048 235.356C91.9249 236.842 86.4268 236.246 81.7826 233.708L83.461 230.637C81.6175 229.629 79.9344 228.249 78.5278 226.501L67.3069 212.555L64.58 214.749L42.1381 186.857L44.865 184.663L33.6441 170.717C32.2376 168.969 31.2493 167.029 30.6597 165.013L27.3004 165.995C25.8152 160.915 26.4105 155.417 28.9486 150.773L32.0199 152.451C33.0273 150.608 34.4079 148.925 36.156 147.518L48.1208 137.891L45.9267 135.164L69.8563 115.911L72.0504 118.637L95.9799 99.3836L93.7859 96.6567L117.715 77.4029L119.91 80.1298L131.874 70.5029C134.986 67.9993 138.9 66.7092 142.89 66.872L156.478 67.4263L156.621 63.9292Z" stroke="#680000" stroke-width="7" stroke-dasharray="25 25"/>
<circle cx="189.641" cy="89.2891" r="12.5" transform="rotate(51.1797 189.641 89.2891)" fill="url(#paint0_linear_204_7943)"/>
<g filter="url(#filter0_d_204_7943)">
<path d="M35.1117 128.12C34.9784 128.2 34.8051 128.333 34.5917 128.52C34.2984 128.733 34.0717 129.027 33.9117 129.4C33.7784 129.773 33.6584 130.2 33.5517 130.68C33.5517 135.453 33.5784 138.387 33.6317 139.48C33.6851 141.693 34.3117 142.8 35.5117 142.8C36.8984 142.8 37.9251 142.013 38.5917 140.44C39.0984 139.293 39.3517 137.907 39.3517 136.28C39.3517 134.28 39.0984 132.6 38.5917 131.24C37.8717 129.24 36.7117 128.2 35.1117 128.12ZM25.7117 133.84C25.7117 131.147 25.3517 129.507 24.6317 128.92C24.3917 128.787 24.0584 128.587 23.6317 128.32C23.3117 128 23.1517 127.547 23.1517 126.96C23.1517 125.867 23.8451 125.053 25.2317 124.52C26.3784 124.067 27.7917 123.853 29.4717 123.88C29.8184 123.88 30.5517 123.92 31.6717 124C36.8717 124.347 40.7784 125.613 43.3917 127.8C46.5117 130.44 48.0717 134.56 48.0717 140.16C48.0717 144.4 47.0051 147.787 44.8717 150.32C42.5784 153.04 39.3651 154.4 35.2317 154.4C29.7651 154.4 28.0317 154.413 30.0317 154.44C27.3917 154.413 25.5117 154.213 24.3917 153.84C23.3784 153.52 22.7517 153.28 22.5117 153.12C22.0317 152.827 21.8317 152.373 21.9117 151.76C22.0451 150.507 22.3917 149.573 22.9517 148.96C23.6984 148.16 24.1917 147.427 24.4317 146.76C25.3117 144.227 25.7384 139.92 25.7117 133.84ZM60.5914 133.8C60.5647 131.107 60.2047 129.48 59.5114 128.92C59.2714 128.787 58.9381 128.587 58.5114 128.32C58.1914 128 58.0314 127.547 58.0314 126.96C58.0314 125.867 58.7247 125.053 60.1114 124.52C61.2581 124.067 62.6714 123.853 64.3514 123.88C66.7247 123.907 68.3914 124.187 69.3514 124.72C70.1781 125.147 70.5914 125.8 70.5914 126.68C70.5914 127.213 70.4581 127.6 70.1914 127.84C69.9514 128.08 69.6981 128.307 69.4314 128.52C69.1647 128.733 68.9647 129.027 68.8314 129.4C68.3514 130.573 68.1114 132.36 68.1114 134.76V134.96C68.3514 137.253 68.7247 139.667 69.2314 142.2C69.7647 145.053 70.2314 146.747 70.6314 147.28C70.9781 147.653 71.3381 148.053 71.7114 148.48C72.1114 148.907 72.3114 149.333 72.3114 149.76C72.3114 151.947 71.7514 153.293 70.6314 153.8C69.7781 154.2 67.4981 154.4 63.7914 154.4C60.8047 154.4 58.8181 154.107 57.8314 153.52C56.8447 152.907 56.3514 151.747 56.3514 150.04C56.3514 149.64 56.6047 149.2 57.1114 148.72C57.7247 148.133 58.0714 147.747 58.1514 147.56C58.5247 146.813 58.9781 144.88 59.5114 141.76C59.9914 138.96 60.3514 136.307 60.5914 133.8ZM87.5417 143.44C89.3817 143.44 90.3017 142.56 90.3017 140.8C90.3017 140.213 89.6884 139.4 88.4617 138.36C86.6217 136.76 85.5151 135.747 85.1417 135.32C83.9151 133.96 83.3017 132.6 83.3017 131.24C83.3017 128.813 84.2751 126.893 86.2217 125.48C87.9551 124.227 90.0751 123.6 92.5817 123.6C93.3817 123.6 94.5284 123.747 96.0217 124.04C97.5417 124.333 98.7151 124.48 99.5417 124.48C100.982 124.48 101.702 126.133 101.702 129.44C101.702 131.333 100.955 132.28 99.4617 132.28C98.4217 132.28 97.4217 131.52 96.4617 130C95.5284 128.48 94.6217 127.72 93.7417 127.72C91.7951 127.72 90.8217 128.427 90.8217 129.84C90.8217 130.667 91.9151 131.6 94.1017 132.64C97.0617 134.027 99.0751 135.187 100.142 136.12C102.328 138.013 103.422 140.44 103.422 143.4C103.422 146.627 102.368 149.28 100.262 151.36C98.1817 153.44 95.5417 154.48 92.3417 154.48C89.0617 154.48 86.3951 153.68 84.3417 152.08C82.0751 150.347 80.9417 147.88 80.9417 144.68C80.9417 143.08 81.7684 142.28 83.4217 142.28C83.9551 142.28 84.5017 142.48 85.0617 142.88C85.6484 143.253 86.4751 143.44 87.5417 143.44ZM134.31 145.56C134.31 148.333 133.403 150.467 131.59 151.96C129.91 153.373 127.67 154.08 124.87 154.08C121.216 154.08 118.123 152.627 115.59 149.72C113.19 146.947 111.99 143.68 111.99 139.92C111.99 136.053 113.176 132.467 115.55 129.16C118.163 125.507 121.336 123.68 125.07 123.68C126.323 123.68 127.536 124.013 128.71 124.68C129.91 125.32 130.643 125.64 130.91 125.64C131.07 125.64 131.27 125.533 131.51 125.32C131.776 125.107 132.003 125.013 132.19 125.04C133.283 125.093 133.963 125.933 134.23 127.56C134.336 128.067 134.39 129.187 134.39 130.92C134.39 131.747 134.043 132.467 133.35 133.08C132.656 133.667 131.91 133.96 131.11 133.96C130.336 133.96 129.643 133.36 129.03 132.16C128.416 130.96 127.71 130.36 126.91 130.36C125.336 130.36 124.043 130.987 123.03 132.24C122.123 133.36 121.67 134.6 121.67 135.96C121.67 139.667 123.07 141.52 125.87 141.52C126.563 141.52 127.656 141.067 129.15 140.16C130.67 139.227 131.67 138.76 132.15 138.76C132.443 138.76 132.683 138.867 132.87 139.08C133.83 140.227 134.31 142.387 134.31 145.56ZM168.342 143.24C168.342 146.6 167.076 149.413 164.542 151.68C162.142 153.813 159.249 154.88 155.862 154.88C152.076 154.88 149.036 153.387 146.742 150.4C144.689 147.68 143.662 144.36 143.662 140.44C143.662 136.12 144.702 132.347 146.782 129.12C149.182 125.387 152.422 123.52 156.502 123.52C160.449 123.52 163.502 125.787 165.662 130.32C167.449 134.027 168.342 138.333 168.342 143.24ZM159.582 138C159.582 136.24 159.196 134.293 158.422 132.16C157.462 129.493 156.276 128.16 154.862 128.16C154.036 128.16 153.396 128.773 152.942 130C152.596 130.933 152.422 131.933 152.422 133C152.422 134.813 152.716 136.507 153.302 138.08C154.102 140.187 155.276 141.24 156.822 141.24C158.662 141.24 159.582 140.16 159.582 138ZM202.628 135.24C202.628 136.147 202.641 137.507 202.668 139.32C202.721 141.107 202.748 142.453 202.748 143.36C202.748 145.947 201.614 148.413 199.348 150.76C197.081 153.08 194.641 154.24 192.028 154.24C187.308 154.24 183.988 153.347 182.068 151.56C180.068 149.72 179.068 146.507 179.068 141.92C179.068 141.04 179.108 139.72 179.188 137.96C179.294 136.2 179.348 134.88 179.348 134C179.348 132.053 179.134 130.627 178.708 129.72C178.494 129.293 178.081 128.84 177.468 128.36C177.014 128.013 176.788 127.547 176.788 126.96C176.788 125.813 177.548 124.973 179.068 124.44C180.108 124.067 181.348 123.88 182.788 123.88C187.161 123.88 189.348 124.813 189.348 126.68C189.348 127.267 189.121 127.76 188.668 128.16C188.054 128.693 187.681 129.107 187.548 129.4C187.094 130.467 186.868 132.253 186.868 134.76L186.828 134.68C186.854 137.133 187.094 138.787 187.548 139.64C188.241 140.867 189.721 141.48 191.988 141.48C193.908 141.48 195.201 141.08 195.868 140.28C196.561 139.48 196.908 138.093 196.908 136.12C196.908 134.093 196.828 132.507 196.668 131.36C196.481 129.973 196.014 129.053 195.268 128.6C194.601 128.227 194.268 127.68 194.268 126.96C194.268 124.907 196.374 123.88 200.588 123.88C201.681 123.88 202.641 124.053 203.468 124.4C204.561 124.88 205.108 125.6 205.108 126.56C205.108 127.147 204.881 127.64 204.428 128.04C203.841 128.547 203.481 128.947 203.348 129.24C202.868 130.413 202.628 132.413 202.628 135.24ZM224.721 140.44C224.721 141.107 224.961 142.333 225.441 144.12C225.948 145.88 226.334 146.947 226.601 147.32C226.894 147.693 227.201 148.067 227.521 148.44C227.921 148.893 228.161 149.333 228.241 149.76C228.321 150.293 228.361 150.773 228.361 151.2C228.361 152.373 227.934 153.2 227.081 153.68C226.388 154.053 225.148 154.28 223.361 154.36C222.534 154.467 220.734 154.52 217.961 154.52C216.894 154.52 215.801 154.307 214.681 153.88C213.694 153.533 213.041 153.04 212.721 152.4C212.428 151.947 212.281 151.413 212.281 150.8C212.281 150.693 212.281 150.587 212.281 150.48C212.281 150.347 212.281 150.2 212.281 150.04C212.281 149.693 212.454 149.333 212.801 148.96C213.094 148.667 213.401 148.36 213.721 148.04C214.521 145 215.094 142.173 215.441 139.56C215.734 137.453 215.934 135.533 216.041 133.8C216.201 131.267 215.841 129.64 214.961 128.92C214.721 128.787 214.388 128.587 213.961 128.32C213.641 128 213.481 127.547 213.481 126.96C213.481 125.867 214.174 125.053 215.561 124.52C216.681 124.067 218.094 123.853 219.801 123.88C222.708 123.933 224.574 124.347 225.401 125.12C226.654 125.947 227.788 127.92 228.801 131.04C229.921 134.4 231.014 136.6 232.081 137.64C232.348 137.88 232.641 137.947 232.961 137.84C233.281 137.44 233.441 136.853 233.441 136.08C233.441 135.787 233.401 135.333 233.321 134.72C233.321 134.667 233.321 134.6 233.321 134.52L233.281 134.44C233.201 133.8 233.108 133.12 233.001 132.4C232.548 130.907 231.814 129.747 230.801 128.92C230.561 128.787 230.228 128.587 229.801 128.32C229.508 128 229.361 127.547 229.361 126.96C229.361 125.867 230.054 125.053 231.441 124.52C232.561 124.067 233.974 123.853 235.681 123.88C238.028 123.907 239.694 124.187 240.681 124.72C241.481 125.147 241.881 125.8 241.881 126.68C241.881 127.213 241.761 127.6 241.521 127.84C241.281 128.08 241.028 128.307 240.761 128.52C240.494 128.733 240.281 129.027 240.121 129.4C239.801 129.96 239.481 130.533 239.161 131.12C238.681 132.107 238.441 133.213 238.441 134.44C238.441 134.387 238.441 134.56 238.441 134.96C238.494 136.427 238.908 138.64 239.681 141.6C240.401 144.427 240.761 146.627 240.761 148.2C240.761 150.28 240.588 151.72 240.241 152.52C239.681 153.773 238.521 154.4 236.761 154.4C234.814 154.4 233.054 153.133 231.481 150.6C231.081 149.933 229.988 147.587 228.201 143.56C227.081 141.027 226.068 139.76 225.161 139.76C224.868 139.76 224.721 139.987 224.721 140.44ZM265.236 135.88C265.503 138.227 265.863 140.52 266.316 142.76C266.796 145.293 267.21 146.8 267.556 147.28C267.903 147.653 268.263 148.053 268.636 148.48C269.036 148.907 269.236 149.333 269.236 149.76C269.236 151.947 268.676 153.293 267.556 153.8C266.703 154.2 264.423 154.4 260.716 154.4C257.756 154.4 255.77 154.107 254.756 153.52C253.77 152.907 253.276 151.747 253.276 150.04C253.276 149.64 253.53 149.2 254.036 148.72C254.65 148.133 254.996 147.747 255.076 147.56C255.476 146.787 255.943 144.853 256.476 141.76C257.01 138.8 257.37 136.147 257.556 133.8C257.61 133.187 257.663 131.747 257.716 129.48C257.316 129.32 257.116 129.24 257.116 129.24C256.77 129.24 256.463 129.56 256.196 130.2C255.823 131.107 255.49 131.707 255.196 132C254.583 132.64 253.69 132.96 252.516 132.96C251.53 132.96 250.89 132.64 250.596 132C250.41 131.6 250.316 130.827 250.316 129.68C250.316 128.48 250.676 127.227 251.396 125.92C252.196 124.4 253.116 123.64 254.156 123.64C254.53 123.64 255.09 123.747 255.836 123.96C256.583 124.147 257.143 124.24 257.516 124.24C261.996 124.24 264.996 124.173 266.516 124.04C266.65 124.013 266.836 123.933 267.076 123.8C267.316 123.667 267.53 123.6 267.716 123.6C268.836 123.6 269.796 124.333 270.596 125.8C271.29 127.053 271.636 128.307 271.636 129.56C271.636 131.827 270.783 132.96 269.076 132.96C268.116 132.96 267.33 132.333 266.716 131.08C266.103 129.8 265.49 129.16 264.876 129.16C264.876 129.16 264.743 129.213 264.476 129.32C264.556 130.2 264.743 131.893 265.036 134.4L265.236 135.88Z" fill="#FFDDDD"/>
</g>
<g filter="url(#filter1_d_204_7943)">
<path d="M31.1117 130.12C30.9784 130.2 30.8051 130.333 30.5917 130.52C30.2984 130.733 30.0717 131.027 29.9117 131.4C29.7784 131.773 29.6584 132.2 29.5517 132.68C29.5517 137.453 29.5784 140.387 29.6317 141.48C29.6851 143.693 30.3117 144.8 31.5117 144.8C32.8984 144.8 33.9251 144.013 34.5917 142.44C35.0984 141.293 35.3517 139.907 35.3517 138.28C35.3517 136.28 35.0984 134.6 34.5917 133.24C33.8717 131.24 32.7117 130.2 31.1117 130.12ZM21.7117 135.84C21.7117 133.147 21.3517 131.507 20.6317 130.92C20.3917 130.787 20.0584 130.587 19.6317 130.32C19.3117 130 19.1517 129.547 19.1517 128.96C19.1517 127.867 19.8451 127.053 21.2317 126.52C22.3784 126.067 23.7917 125.853 25.4717 125.88C25.8184 125.88 26.5517 125.92 27.6717 126C32.8717 126.347 36.7784 127.613 39.3917 129.8C42.5117 132.44 44.0717 136.56 44.0717 142.16C44.0717 146.4 43.0051 149.787 40.8717 152.32C38.5784 155.04 35.3651 156.4 31.2317 156.4C25.7651 156.4 24.0317 156.413 26.0317 156.44C23.3917 156.413 21.5117 156.213 20.3917 155.84C19.3784 155.52 18.7517 155.28 18.5117 155.12C18.0317 154.827 17.8317 154.373 17.9117 153.76C18.0451 152.507 18.3917 151.573 18.9517 150.96C19.6984 150.16 20.1917 149.427 20.4317 148.76C21.3117 146.227 21.7384 141.92 21.7117 135.84ZM56.5914 135.8C56.5647 133.107 56.2047 131.48 55.5114 130.92C55.2714 130.787 54.9381 130.587 54.5114 130.32C54.1914 130 54.0314 129.547 54.0314 128.96C54.0314 127.867 54.7247 127.053 56.1114 126.52C57.2581 126.067 58.6714 125.853 60.3514 125.88C62.7247 125.907 64.3914 126.187 65.3514 126.72C66.1781 127.147 66.5914 127.8 66.5914 128.68C66.5914 129.213 66.4581 129.6 66.1914 129.84C65.9514 130.08 65.6981 130.307 65.4314 130.52C65.1647 130.733 64.9647 131.027 64.8314 131.4C64.3514 132.573 64.1114 134.36 64.1114 136.76V136.96C64.3514 139.253 64.7247 141.667 65.2314 144.2C65.7647 147.053 66.2314 148.747 66.6314 149.28C66.9781 149.653 67.3381 150.053 67.7114 150.48C68.1114 150.907 68.3114 151.333 68.3114 151.76C68.3114 153.947 67.7514 155.293 66.6314 155.8C65.7781 156.2 63.4981 156.4 59.7914 156.4C56.8047 156.4 54.8181 156.107 53.8314 155.52C52.8447 154.907 52.3514 153.747 52.3514 152.04C52.3514 151.64 52.6047 151.2 53.1114 150.72C53.7247 150.133 54.0714 149.747 54.1514 149.56C54.5247 148.813 54.9781 146.88 55.5114 143.76C55.9914 140.96 56.3514 138.307 56.5914 135.8ZM83.5417 145.44C85.3817 145.44 86.3017 144.56 86.3017 142.8C86.3017 142.213 85.6884 141.4 84.4617 140.36C82.6217 138.76 81.5151 137.747 81.1417 137.32C79.9151 135.96 79.3017 134.6 79.3017 133.24C79.3017 130.813 80.2751 128.893 82.2217 127.48C83.9551 126.227 86.0751 125.6 88.5817 125.6C89.3817 125.6 90.5284 125.747 92.0217 126.04C93.5417 126.333 94.7151 126.48 95.5417 126.48C96.9817 126.48 97.7017 128.133 97.7017 131.44C97.7017 133.333 96.9551 134.28 95.4617 134.28C94.4217 134.28 93.4217 133.52 92.4617 132C91.5284 130.48 90.6217 129.72 89.7417 129.72C87.7951 129.72 86.8217 130.427 86.8217 131.84C86.8217 132.667 87.9151 133.6 90.1017 134.64C93.0617 136.027 95.0751 137.187 96.1417 138.12C98.3284 140.013 99.4217 142.44 99.4217 145.4C99.4217 148.627 98.3684 151.28 96.2617 153.36C94.1817 155.44 91.5417 156.48 88.3417 156.48C85.0617 156.48 82.3951 155.68 80.3417 154.08C78.0751 152.347 76.9417 149.88 76.9417 146.68C76.9417 145.08 77.7684 144.28 79.4217 144.28C79.9551 144.28 80.5017 144.48 81.0617 144.88C81.6484 145.253 82.4751 145.44 83.5417 145.44ZM130.31 147.56C130.31 150.333 129.403 152.467 127.59 153.96C125.91 155.373 123.67 156.08 120.87 156.08C117.216 156.08 114.123 154.627 111.59 151.72C109.19 148.947 107.99 145.68 107.99 141.92C107.99 138.053 109.176 134.467 111.55 131.16C114.163 127.507 117.336 125.68 121.07 125.68C122.323 125.68 123.536 126.013 124.71 126.68C125.91 127.32 126.643 127.64 126.91 127.64C127.07 127.64 127.27 127.533 127.51 127.32C127.776 127.107 128.003 127.013 128.19 127.04C129.283 127.093 129.963 127.933 130.23 129.56C130.336 130.067 130.39 131.187 130.39 132.92C130.39 133.747 130.043 134.467 129.35 135.08C128.656 135.667 127.91 135.96 127.11 135.96C126.336 135.96 125.643 135.36 125.03 134.16C124.416 132.96 123.71 132.36 122.91 132.36C121.336 132.36 120.043 132.987 119.03 134.24C118.123 135.36 117.67 136.6 117.67 137.96C117.67 141.667 119.07 143.52 121.87 143.52C122.563 143.52 123.656 143.067 125.15 142.16C126.67 141.227 127.67 140.76 128.15 140.76C128.443 140.76 128.683 140.867 128.87 141.08C129.83 142.227 130.31 144.387 130.31 147.56ZM164.342 145.24C164.342 148.6 163.076 151.413 160.542 153.68C158.142 155.813 155.249 156.88 151.862 156.88C148.076 156.88 145.036 155.387 142.742 152.4C140.689 149.68 139.662 146.36 139.662 142.44C139.662 138.12 140.702 134.347 142.782 131.12C145.182 127.387 148.422 125.52 152.502 125.52C156.449 125.52 159.502 127.787 161.662 132.32C163.449 136.027 164.342 140.333 164.342 145.24ZM155.582 140C155.582 138.24 155.196 136.293 154.422 134.16C153.462 131.493 152.276 130.16 150.862 130.16C150.036 130.16 149.396 130.773 148.942 132C148.596 132.933 148.422 133.933 148.422 135C148.422 136.813 148.716 138.507 149.302 140.08C150.102 142.187 151.276 143.24 152.822 143.24C154.662 143.24 155.582 142.16 155.582 140ZM198.628 137.24C198.628 138.147 198.641 139.507 198.668 141.32C198.721 143.107 198.748 144.453 198.748 145.36C198.748 147.947 197.614 150.413 195.348 152.76C193.081 155.08 190.641 156.24 188.028 156.24C183.308 156.24 179.988 155.347 178.068 153.56C176.068 151.72 175.068 148.507 175.068 143.92C175.068 143.04 175.108 141.72 175.188 139.96C175.294 138.2 175.348 136.88 175.348 136C175.348 134.053 175.134 132.627 174.708 131.72C174.494 131.293 174.081 130.84 173.468 130.36C173.014 130.013 172.788 129.547 172.788 128.96C172.788 127.813 173.548 126.973 175.068 126.44C176.108 126.067 177.348 125.88 178.788 125.88C183.161 125.88 185.348 126.813 185.348 128.68C185.348 129.267 185.121 129.76 184.668 130.16C184.054 130.693 183.681 131.107 183.548 131.4C183.094 132.467 182.868 134.253 182.868 136.76L182.828 136.68C182.854 139.133 183.094 140.787 183.548 141.64C184.241 142.867 185.721 143.48 187.988 143.48C189.908 143.48 191.201 143.08 191.868 142.28C192.561 141.48 192.908 140.093 192.908 138.12C192.908 136.093 192.828 134.507 192.668 133.36C192.481 131.973 192.014 131.053 191.268 130.6C190.601 130.227 190.268 129.68 190.268 128.96C190.268 126.907 192.374 125.88 196.588 125.88C197.681 125.88 198.641 126.053 199.468 126.4C200.561 126.88 201.108 127.6 201.108 128.56C201.108 129.147 200.881 129.64 200.428 130.04C199.841 130.547 199.481 130.947 199.348 131.24C198.868 132.413 198.628 134.413 198.628 137.24ZM220.721 142.44C220.721 143.107 220.961 144.333 221.441 146.12C221.948 147.88 222.334 148.947 222.601 149.32C222.894 149.693 223.201 150.067 223.521 150.44C223.921 150.893 224.161 151.333 224.241 151.76C224.321 152.293 224.361 152.773 224.361 153.2C224.361 154.373 223.934 155.2 223.081 155.68C222.388 156.053 221.148 156.28 219.361 156.36C218.534 156.467 216.734 156.52 213.961 156.52C212.894 156.52 211.801 156.307 210.681 155.88C209.694 155.533 209.041 155.04 208.721 154.4C208.428 153.947 208.281 153.413 208.281 152.8C208.281 152.693 208.281 152.587 208.281 152.48C208.281 152.347 208.281 152.2 208.281 152.04C208.281 151.693 208.454 151.333 208.801 150.96C209.094 150.667 209.401 150.36 209.721 150.04C210.521 147 211.094 144.173 211.441 141.56C211.734 139.453 211.934 137.533 212.041 135.8C212.201 133.267 211.841 131.64 210.961 130.92C210.721 130.787 210.388 130.587 209.961 130.32C209.641 130 209.481 129.547 209.481 128.96C209.481 127.867 210.174 127.053 211.561 126.52C212.681 126.067 214.094 125.853 215.801 125.88C218.708 125.933 220.574 126.347 221.401 127.12C222.654 127.947 223.788 129.92 224.801 133.04C225.921 136.4 227.014 138.6 228.081 139.64C228.348 139.88 228.641 139.947 228.961 139.84C229.281 139.44 229.441 138.853 229.441 138.08C229.441 137.787 229.401 137.333 229.321 136.72C229.321 136.667 229.321 136.6 229.321 136.52L229.281 136.44C229.201 135.8 229.108 135.12 229.001 134.4C228.548 132.907 227.814 131.747 226.801 130.92C226.561 130.787 226.228 130.587 225.801 130.32C225.508 130 225.361 129.547 225.361 128.96C225.361 127.867 226.054 127.053 227.441 126.52C228.561 126.067 229.974 125.853 231.681 125.88C234.028 125.907 235.694 126.187 236.681 126.72C237.481 127.147 237.881 127.8 237.881 128.68C237.881 129.213 237.761 129.6 237.521 129.84C237.281 130.08 237.028 130.307 236.761 130.52C236.494 130.733 236.281 131.027 236.121 131.4C235.801 131.96 235.481 132.533 235.161 133.12C234.681 134.107 234.441 135.213 234.441 136.44C234.441 136.387 234.441 136.56 234.441 136.96C234.494 138.427 234.908 140.64 235.681 143.6C236.401 146.427 236.761 148.627 236.761 150.2C236.761 152.28 236.588 153.72 236.241 154.52C235.681 155.773 234.521 156.4 232.761 156.4C230.814 156.4 229.054 155.133 227.481 152.6C227.081 151.933 225.988 149.587 224.201 145.56C223.081 143.027 222.068 141.76 221.161 141.76C220.868 141.76 220.721 141.987 220.721 142.44ZM261.236 137.88C261.503 140.227 261.863 142.52 262.316 144.76C262.796 147.293 263.21 148.8 263.556 149.28C263.903 149.653 264.263 150.053 264.636 150.48C265.036 150.907 265.236 151.333 265.236 151.76C265.236 153.947 264.676 155.293 263.556 155.8C262.703 156.2 260.423 156.4 256.716 156.4C253.756 156.4 251.77 156.107 250.756 155.52C249.77 154.907 249.276 153.747 249.276 152.04C249.276 151.64 249.53 151.2 250.036 150.72C250.65 150.133 250.996 149.747 251.076 149.56C251.476 148.787 251.943 146.853 252.476 143.76C253.01 140.8 253.37 138.147 253.556 135.8C253.61 135.187 253.663 133.747 253.716 131.48C253.316 131.32 253.116 131.24 253.116 131.24C252.77 131.24 252.463 131.56 252.196 132.2C251.823 133.107 251.49 133.707 251.196 134C250.583 134.64 249.69 134.96 248.516 134.96C247.53 134.96 246.89 134.64 246.596 134C246.41 133.6 246.316 132.827 246.316 131.68C246.316 130.48 246.676 129.227 247.396 127.92C248.196 126.4 249.116 125.64 250.156 125.64C250.53 125.64 251.09 125.747 251.836 125.96C252.583 126.147 253.143 126.24 253.516 126.24C257.996 126.24 260.996 126.173 262.516 126.04C262.65 126.013 262.836 125.933 263.076 125.8C263.316 125.667 263.53 125.6 263.716 125.6C264.836 125.6 265.796 126.333 266.596 127.8C267.29 129.053 267.636 130.307 267.636 131.56C267.636 133.827 266.783 134.96 265.076 134.96C264.116 134.96 263.33 134.333 262.716 133.08C262.103 131.8 261.49 131.16 260.876 131.16C260.876 131.16 260.743 131.213 260.476 131.32C260.556 132.2 260.743 133.893 261.036 136.4L261.236 137.88Z" fill="black"/>
</g>
<defs>
<filter id="filter0_d_204_7943" x="17.7917" y="123.52" width="257.845" height="39.3599" filterUnits="userSpaceOnUse" color-interpolation-filters="sRGB">
<feFlood flood-opacity="0" result="BackgroundImageFix"/>
<feColorMatrix in="SourceAlpha" type="matrix" values="0 0 0 0 0 0 0 0 0 0 0 0 0 0 0 0 0 0 127 0" result="hardAlpha"/>
<feOffset dy="4"/>
<feGaussianBlur stdDeviation="2"/>
<feComposite in2="hardAlpha" operator="out"/>
<feColorMatrix type="matrix" values="0 0 0 0 0 0 0 0 0 0 0 0 0 0 0 0 0 0 0.25 0"/>
<feBlend mode="normal" in2="BackgroundImageFix" result="effect1_dropShadow_204_7943"/>
<feBlend mode="normal" in="SourceGraphic" in2="effect1_dropShadow_204_7943" result="shape"/>
</filter>
<filter id="filter1_d_204_7943" x="13.7917" y="125.52" width="257.845" height="39.3599" filterUnits="userSpaceOnUse" color-interpolation-filters="sRGB">
<feFlood flood-opacity="0" result="BackgroundImageFix"/>
<feColorMatrix in="SourceAlpha" type="matrix" values="0 0 0 0 0 0 0 0 0 0 0 0 0 0 0 0 0 0 127 0" result="hardAlpha"/>
<feOffset dy="4"/>
<feGaussianBlur stdDeviation="2"/>
<feComposite in2="hardAlpha" operator="out"/>
<feColorMatrix type="matrix" values="0 0 0 0 0 0 0 0 0 0 0 0 0 0 0 0 0 0 0.25 0"/>
<feBlend mode="normal" in2="BackgroundImageFix" result="effect1_dropShadow_204_7943"/>
<feBlend mode="normal" in="SourceGraphic" in2="effect1_dropShadow_204_7943" result="shape"/>
</filter>
<linearGradient id="paint0_linear_204_7943" x1="189.641" y1="76.7891" x2="189.641" y2="101.789" gradientUnits="userSpaceOnUse">
<stop stop-color="#FFFFFE"/>
<stop offset="1" stop-color="#EAD6A2"/>
</linearGradient>
</defs>
</svg>
