<svg width="269" height="176" viewBox="0 0 269 176" fill="none" xmlns="http://www.w3.org/2000/svg">
<g filter="url(#filter0_ddi_204_7884)">
<path d="M54.7019 55H70C77.732 55 84 61.268 84 69V119C84 126.732 77.732 133 70 133H24C16.268 133 10 126.732 10 119V98.0129C10 94.1625 11.5858 90.482 14.3844 87.8375L45.0863 58.8246C47.6854 56.3684 51.1259 55 54.7019 55Z" stroke="#FF0000" stroke-width="12"/>
<rect x="90" y="13" width="145" height="120" rx="14" stroke="#FF0000" stroke-width="12"/>
<mask id="path-3-inside-1_204_7884" fill="white">
<ellipse cx="47.5" cy="143" rx="25.5" ry="25"/>
</mask>
<path d="M41 143C41 138.54 44.5105 136 47.5 136V200C78.656 200 105 175.075 105 143H41ZM47.5 136C50.4895 136 54 138.54 54 143H-10C-10 175.075 16.344 200 47.5 200V136ZM54 143C54 147.46 50.4895 150 47.5 150V86C16.344 86 -10 110.925 -10 143H54ZM47.5 150C44.5105 150 41 147.46 41 143H105C105 110.925 78.656 86 47.5 86V150Z" fill="#FF0000" mask="url(#path-3-inside-1_204_7884)"/>
<mask id="path-5-inside-2_204_7884" fill="white">
<ellipse cx="180.5" cy="143" rx="25.5" ry="25"/>
</mask>
<path d="M174 143C174 138.54 177.511 136 180.5 136V200C211.656 200 238 175.075 238 143H174ZM180.5 136C183.489 136 187 138.54 187 143H123C123 175.075 149.344 200 180.5 200V136ZM187 143C187 147.46 183.489 150 180.5 150V86C149.344 86 123 110.925 123 143H187ZM180.5 150C177.511 150 174 147.46 174 143H238C238 110.925 211.656 86 180.5 86V150Z" fill="#FF0000" mask="url(#path-5-inside-2_204_7884)"/>
<path d="M51.0968 66.3677C52.0252 65.4894 53.2547 65 54.5328 65H71C73.7614 65 76 67.2386 76 70V87C76 89.7614 73.7614 92 71 92H36.5615C32.0398 92 29.8406 86.4751 33.1255 83.3677L51.0968 66.3677Z" fill="#FF0000"/>
<g filter="url(#filter1_d_204_7884)">
<path d="M135.359 19.5396L189.577 11.7505L154.72 74.8518L119.692 79.2845L135.359 19.5396Z" fill="#EED658"/>
<path d="M135.583 130L152.328 51.7754L200 45.7782L135.583 130Z" fill="#EED658"/>
</g>
</g>
<g filter="url(#filter2_d_204_7884)">
<path d="M78.5484 59.84V59.8C78.5218 57.1067 78.1618 55.48 77.4684 54.92C77.2284 54.7867 76.8951 54.5867 76.4684 54.32C76.1484 54 75.9884 53.5467 75.9884 52.96C75.9884 51.8667 76.6818 51.0533 78.0684 50.52C79.2151 50.0667 80.6284 49.8533 82.3084 49.88C82.4418 49.88 82.6418 49.8933 82.9084 49.92C83.1484 49.92 83.3351 49.92 83.4684 49.92C83.2818 49.92 84.2018 49.92 86.2284 49.92C87.1618 49.92 88.5351 49.8133 90.3484 49.6C92.1618 49.36 93.4951 49.24 94.3484 49.24C95.4684 49.24 96.3484 49.96 96.9884 51.4C97.4951 52.52 97.7484 53.7333 97.7484 55.04C97.7484 55.8667 97.5751 56.56 97.2284 57.12C96.8284 57.8133 96.2551 58.16 95.5084 58.16C94.8684 58.16 94.3218 57.8 93.8684 57.08C93.2018 55.9867 92.7218 55.32 92.4284 55.08C91.6284 54.36 90.4818 54.0133 88.9884 54.04C87.1484 54.0933 86.2284 54.6 86.2284 55.56C86.2284 56.5467 86.6151 57.3067 87.3884 57.84C88.0818 58.2933 88.9484 58.52 89.9884 58.52C90.2018 58.52 90.4818 58.4 90.8284 58.16C91.1751 57.8933 91.4684 57.76 91.7084 57.76C92.1351 57.76 92.3484 59.3467 92.3484 62.52C92.3484 62.92 92.2284 63.28 91.9884 63.6C91.7484 63.92 91.4284 64.08 91.0284 64.08C90.7351 64.08 90.2684 63.72 89.6284 63C88.9884 62.28 88.2818 61.92 87.5084 61.92C86.8951 61.92 86.5084 62.12 86.3484 62.52C86.2684 62.7333 86.2151 63.24 86.1884 64.04C86.0818 67.3467 86.3618 70.4 87.0284 73.2C87.1618 73.8133 87.8951 74.7467 89.2284 76C90.4284 77.1467 90.9884 78.1333 90.9084 78.96C90.8284 79.84 89.9751 80.28 88.3484 80.28C87.9218 80.28 87.2951 80.24 86.4684 80.16C85.6418 80.1067 85.0551 80.08 84.7084 80.08L77.1884 80.16C75.8284 80.16 75.1484 79.4933 75.1484 78.16C75.1484 77.6267 75.4684 76.9867 76.1084 76.24C76.6151 75.68 77.1218 75.12 77.6284 74.56C78.3751 73.6533 78.7351 72.6 78.7084 71.4L78.5484 59.84ZM116.925 54C116.578 54 116.258 54.1333 115.965 54.4C115.698 54.64 115.591 54.9333 115.645 55.28L115.965 59.4C116.018 60.0933 116.258 60.44 116.685 60.44C117.485 60.44 118.125 60.0533 118.605 59.28C119.031 58.5867 119.245 57.8133 119.245 56.96C119.245 54.9867 118.471 54 116.925 54ZM116.805 66.4C117.365 70.1867 117.938 72.48 118.525 73.28C118.871 73.6533 119.231 74.0533 119.605 74.48C119.978 74.9067 120.165 75.3333 120.165 75.76C120.165 77.9467 119.618 79.2933 118.525 79.8C117.671 80.2 115.391 80.4 111.685 80.4C108.645 80.4 106.618 80.12 105.605 79.56C104.618 78.9733 104.165 77.8 104.245 76.04C104.271 75.64 104.525 75.2 105.005 74.72C105.591 74.1333 105.938 73.7467 106.045 73.56C106.418 72.8133 106.871 70.88 107.405 67.76C107.885 64.96 108.245 62.3067 108.485 59.8C108.405 57.08 108.045 55.4533 107.405 54.92C107.165 54.7867 106.831 54.5867 106.405 54.32C106.085 54 105.925 53.5467 105.925 52.96C105.925 51.8667 106.618 51.0533 108.005 50.52C109.125 50.0667 110.538 49.8533 112.245 49.88C112.858 49.9067 113.418 49.9333 113.925 49.96C116.298 49.8533 117.791 49.8 118.405 49.8C120.618 49.8 122.565 50.24 124.245 51.12C126.325 52.1867 127.365 53.7333 127.365 55.76C127.365 58.2933 126.005 60.3067 123.285 61.8C123.551 62.6267 124.125 63.24 125.005 63.64C126.311 64.2267 126.978 64.52 127.005 64.52C128.098 65.4267 128.911 66.3733 129.445 67.36C129.925 68.24 130.325 69.4267 130.645 70.92C131.098 73.1333 131.778 75.0133 132.685 76.56C132.738 76.6667 133.085 77.0533 133.725 77.72C134.205 78.2267 134.445 78.6533 134.445 79C134.445 79.2667 134.218 79.5333 133.765 79.8C133.445 79.9867 133.125 80.1867 132.805 80.4C132.325 80.4267 131.538 80.5333 130.445 80.72C129.538 80.88 128.765 80.96 128.125 80.96C125.351 80.96 123.445 79.8667 122.405 77.68C121.898 76.6133 121.418 74.36 120.965 70.92C120.565 68.04 119.885 66.1733 118.925 65.32C118.605 65.0533 118.218 64.9733 117.765 65.08C117.018 65.2667 116.698 65.7067 116.805 66.4ZM146.05 57.56C145.89 56.1733 145.57 55.2933 145.09 54.92C144.85 54.7867 144.517 54.5867 144.09 54.32C143.77 54 143.61 53.5467 143.61 52.96C143.61 51.8667 144.304 51.0533 145.69 50.52C146.837 50.0667 148.25 49.8533 149.93 49.88C150.25 49.88 150.73 49.9067 151.37 49.96C152.037 50.0133 152.544 50.04 152.89 50.04C153.797 50.04 155.277 49.9733 157.33 49.84C159.384 49.7067 160.837 49.64 161.69 49.64C162.837 49.64 163.73 50.36 164.37 51.8C164.85 52.92 165.09 54.1333 165.09 55.44C165.09 56.2667 164.93 56.96 164.61 57.52C164.184 58.2133 163.597 58.56 162.85 58.56C162.13 58.56 161.517 58.2267 161.01 57.56C160.264 56.5733 159.69 55.9467 159.29 55.68C158.304 54.9867 156.85 54.64 154.93 54.64C154.37 54.64 154.077 54.64 154.05 54.64C153.784 54.7467 153.597 55.0667 153.49 55.6C153.437 55.7867 153.41 55.9733 153.41 56.16C153.41 57.04 153.85 57.76 154.73 58.32C155.504 58.8 156.424 59.04 157.49 59.04C157.704 59.04 157.957 58.8933 158.25 58.6C158.57 58.3067 158.837 58.16 159.05 58.16C159.45 58.16 159.65 58.4533 159.65 59.04C159.65 59.9733 159.53 60.8667 159.29 61.72C158.944 62.92 158.437 63.52 157.77 63.52C157.344 63.52 156.93 63.1867 156.53 62.52C156.157 61.8533 155.597 61.52 154.85 61.52C153.997 61.52 153.57 62.2267 153.57 63.64C153.57 66.9733 155.504 68.64 159.37 68.64C159.53 68.64 159.784 68.6 160.13 68.52C160.477 68.44 160.744 68.4267 160.93 68.48C161.117 68.5067 161.277 68.52 161.41 68.52C162.077 68.52 162.624 68.2 163.05 67.56C163.504 66.92 163.864 66.6 164.13 66.6C164.53 66.6 164.877 66.8667 165.17 67.4C165.464 67.9333 165.61 68.4267 165.61 68.88C165.61 69.1467 165.637 69.84 165.69 70.96C165.77 72.0533 165.81 72.96 165.81 73.68C165.81 76.9333 165.144 79.04 163.81 80C163.304 80.3467 161.61 80.52 158.73 80.52C157.93 80.52 156.837 80.5333 155.45 80.56C154.304 80.5867 153.184 80.5867 152.09 80.56L144.57 80.52C143.21 80.4933 142.53 79.84 142.53 78.56C142.53 78.0533 142.73 77.6 143.13 77.2C143.797 76.5333 144.17 76.12 144.25 75.96L145.01 74.76C145.384 74.1467 145.61 72.6267 145.69 70.2L146.01 59.88C146.064 59 146.077 58.2267 146.05 57.56ZM177.791 57.56C177.631 56.1733 177.311 55.2933 176.831 54.92C176.591 54.7867 176.258 54.5867 175.831 54.32C175.511 54 175.351 53.5467 175.351 52.96C175.351 51.8667 176.044 51.0533 177.431 50.52C178.578 50.0667 179.991 49.8533 181.671 49.88C181.991 49.88 182.471 49.9067 183.111 49.96C183.778 50.0133 184.284 50.04 184.631 50.04C185.538 50.04 187.018 49.9733 189.071 49.84C191.124 49.7067 192.578 49.64 193.431 49.64C194.578 49.64 195.471 50.36 196.111 51.8C196.591 52.92 196.831 54.1333 196.831 55.44C196.831 56.2667 196.671 56.96 196.351 57.52C195.924 58.2133 195.338 58.56 194.591 58.56C193.871 58.56 193.258 58.2267 192.751 57.56C192.004 56.5733 191.431 55.9467 191.031 55.68C190.044 54.9867 188.591 54.64 186.671 54.64C186.111 54.64 185.818 54.64 185.791 54.64C185.524 54.7467 185.338 55.0667 185.231 55.6C185.178 55.7867 185.151 55.9733 185.151 56.16C185.151 57.04 185.591 57.76 186.471 58.32C187.244 58.8 188.164 59.04 189.231 59.04C189.444 59.04 189.698 58.8933 189.991 58.6C190.311 58.3067 190.578 58.16 190.791 58.16C191.191 58.16 191.391 58.4533 191.391 59.04C191.391 59.9733 191.271 60.8667 191.031 61.72C190.684 62.92 190.178 63.52 189.511 63.52C189.084 63.52 188.671 63.1867 188.271 62.52C187.898 61.8533 187.338 61.52 186.591 61.52C185.738 61.52 185.311 62.2267 185.311 63.64C185.311 66.9733 187.244 68.64 191.111 68.64C191.271 68.64 191.524 68.6 191.871 68.52C192.218 68.44 192.484 68.4267 192.671 68.48C192.858 68.5067 193.018 68.52 193.151 68.52C193.818 68.52 194.364 68.2 194.791 67.56C195.244 66.92 195.604 66.6 195.871 66.6C196.271 66.6 196.618 66.8667 196.911 67.4C197.204 67.9333 197.351 68.4267 197.351 68.88C197.351 69.1467 197.378 69.84 197.431 70.96C197.511 72.0533 197.551 72.96 197.551 73.68C197.551 76.9333 196.884 79.04 195.551 80C195.044 80.3467 193.351 80.52 190.471 80.52C189.671 80.52 188.578 80.5333 187.191 80.56C186.044 80.5867 184.924 80.5867 183.831 80.56L176.311 80.52C174.951 80.4933 174.271 79.84 174.271 78.56C174.271 78.0533 174.471 77.6 174.871 77.2C175.538 76.5333 175.911 76.12 175.991 75.96L176.751 74.76C177.124 74.1467 177.351 72.6267 177.431 70.2L177.751 59.88C177.804 59 177.818 58.2267 177.791 57.56ZM20.037 125.44C21.877 125.44 22.797 124.56 22.797 122.8C22.797 122.213 22.1837 121.4 20.957 120.36C19.117 118.76 18.0104 117.747 17.637 117.32C16.4104 115.96 15.797 114.6 15.797 113.24C15.797 110.813 16.7704 108.893 18.717 107.48C20.4504 106.227 22.5704 105.6 25.077 105.6C25.877 105.6 27.0237 105.747 28.517 106.04C30.037 106.333 31.2104 106.48 32.037 106.48C33.477 106.48 34.197 108.133 34.197 111.44C34.197 113.333 33.4504 114.28 31.957 114.28C30.917 114.28 29.917 113.52 28.957 112C28.0237 110.48 27.117 109.72 26.237 109.72C24.2904 109.72 23.317 110.427 23.317 111.84C23.317 112.667 24.4104 113.6 26.597 114.64C29.557 116.027 31.5704 117.187 32.637 118.12C34.8237 120.013 35.917 122.44 35.917 125.4C35.917 128.627 34.8637 131.28 32.757 133.36C30.677 135.44 28.037 136.48 24.837 136.48C21.557 136.48 18.8904 135.68 16.837 134.08C14.5704 132.347 13.437 129.88 13.437 126.68C13.437 125.08 14.2637 124.28 15.917 124.28C16.4504 124.28 16.997 124.48 17.557 124.88C18.1437 125.253 18.9704 125.44 20.037 125.44ZM59.6848 131.76C59.6848 133.68 59.1782 134.987 58.1648 135.68C57.4182 136.213 56.1782 136.48 54.4448 136.48C54.1248 136.48 53.5915 136.467 52.8448 136.44C52.1248 136.413 51.5648 136.4 51.1648 136.4C48.6315 136.4 46.9382 136.24 46.0848 135.92C44.5115 135.333 43.7248 134.04 43.7248 132.04C43.7248 131.64 43.9648 131.2 44.4448 130.72C45.0848 130.133 45.4448 129.747 45.5248 129.56C46.2448 128.227 46.8315 125.52 47.2848 121.44C47.6848 117.68 47.9248 115.8 48.0048 115.8L48.0448 114.28C48.0715 112.867 47.8715 111.867 47.4448 111.28C47.3382 111.147 46.9248 110.867 46.2048 110.44C45.7515 110.173 45.5248 109.68 45.5248 108.96C45.5248 107.813 46.2715 106.973 47.7648 106.44C48.8048 106.067 50.0582 105.88 51.5248 105.88C55.8982 105.88 58.0848 106.813 58.0848 108.68C58.0848 109.24 57.7248 109.867 57.0048 110.56C56.2848 111.253 55.9248 111.987 55.9248 112.76C55.9248 113.8 56.3115 114.467 57.0848 114.76C57.4582 114.893 58.2848 114.96 59.5648 114.96C60.7915 114.96 61.5382 114.92 61.8048 114.84C62.5782 114.627 62.9648 114.08 62.9648 113.2C62.9648 111.947 62.5915 111.12 61.8448 110.72C61.1248 110.293 60.7648 109.707 60.7648 108.96C60.7648 107.813 61.4982 106.973 62.9648 106.44C64.0315 106.067 65.2848 105.88 66.7248 105.88C71.0982 105.88 73.2848 106.813 73.2848 108.68C73.2848 109.027 73.0715 109.467 72.6448 110C72.0848 110.693 71.6848 111.36 71.4448 112C71.0182 113.12 70.8048 114.573 70.8048 116.36C70.8048 119.933 71.5782 124.253 73.1248 129.32C74.6182 130.92 75.3648 132.213 75.3648 133.2C75.3648 135.2 72.7115 136.2 67.4048 136.2C64.8982 136.2 63.3915 136.147 62.8848 136.04C61.1782 135.64 60.3248 134.64 60.3248 133.04C60.3248 132.48 60.6582 131.893 61.3248 131.28C61.9915 130.64 62.3248 130.16 62.3248 129.84C62.3248 128.933 62.2182 127.573 62.0048 125.76C61.7915 123.947 61.6848 122.573 61.6848 121.64C61.6848 121 61.5782 120.547 61.3648 120.28C61.1782 119.987 60.7648 119.84 60.1248 119.84C58.7915 119.84 57.9782 120.253 57.6848 121.08C57.5248 121.453 57.4448 122.48 57.4448 124.16C57.4448 126.587 57.5115 128.04 57.6448 128.52C57.7515 128.893 58.1382 129.44 58.8048 130.16C59.3915 130.773 59.6848 131.307 59.6848 131.76ZM88.0352 115.8C88.0085 113.107 87.6485 111.48 86.9552 110.92C86.7152 110.787 86.3818 110.587 85.9552 110.32C85.6352 110 85.4752 109.547 85.4752 108.96C85.4752 107.867 86.1685 107.053 87.5552 106.52C88.7018 106.067 90.1152 105.853 91.7952 105.88C94.1685 105.907 95.8352 106.187 96.7952 106.72C97.6218 107.147 98.0352 107.8 98.0352 108.68C98.0352 109.213 97.9018 109.6 97.6352 109.84C97.3952 110.08 97.1418 110.307 96.8752 110.52C96.6085 110.733 96.4085 111.027 96.2752 111.4C95.7952 112.573 95.5552 114.36 95.5552 116.76V116.96C95.7952 119.253 96.1685 121.667 96.6752 124.2C97.2085 127.053 97.6752 128.747 98.0752 129.28C98.4218 129.653 98.7818 130.053 99.1552 130.48C99.5552 130.907 99.7552 131.333 99.7552 131.76C99.7552 133.947 99.1952 135.293 98.0752 135.8C97.2218 136.2 94.9418 136.4 91.2352 136.4C88.2485 136.4 86.2618 136.107 85.2752 135.52C84.2885 134.907 83.7952 133.747 83.7952 132.04C83.7952 131.64 84.0485 131.2 84.5552 130.72C85.1685 130.133 85.5152 129.747 85.5952 129.56C85.9685 128.813 86.4218 126.88 86.9552 123.76C87.4352 120.96 87.7952 118.307 88.0352 115.8ZM120.945 109.88C120.279 109.88 119.945 110.333 119.945 111.24C119.945 113.133 119.972 114.373 120.025 114.96C120.052 115.28 120.065 115.6 120.065 115.92C120.092 116.24 120.265 116.48 120.585 116.64C120.639 116.667 120.785 116.693 121.025 116.72C121.905 116.72 122.599 116.32 123.105 115.52C123.559 114.8 123.785 113.987 123.785 113.08C123.785 110.947 122.839 109.88 120.945 109.88ZM121.185 122C121.879 126.16 122.479 128.587 122.985 129.28C123.332 129.653 123.692 130.053 124.065 130.48C124.439 130.907 124.625 131.333 124.625 131.76C124.625 133.413 124.359 134.547 123.825 135.16C123.292 135.773 122.265 136.147 120.745 136.28C119.972 136.493 118.945 136.6 117.665 136.6C116.385 136.6 114.932 136.493 113.305 136.28C111.492 136.093 110.265 135.693 109.625 135.08C109.012 134.467 108.705 133.453 108.705 132.04C108.705 131.64 108.945 131.2 109.425 130.72C110.039 130.133 110.399 129.747 110.505 129.56C111.279 128.013 112.052 123.76 112.825 116.8V114.16C112.852 112.56 112.519 111.48 111.825 110.92C111.585 110.787 111.252 110.587 110.825 110.32C110.505 110 110.345 109.547 110.345 108.96C110.345 107.867 111.039 107.053 112.425 106.52C113.572 106.067 114.985 105.853 116.665 105.88C117.145 105.907 117.332 105.92 117.225 105.92C117.439 105.893 117.745 105.88 118.145 105.88C118.305 105.853 118.972 105.787 120.145 105.68C120.945 105.627 121.759 105.613 122.585 105.64C128.745 105.88 131.825 108.533 131.825 113.6C131.825 116.453 131.105 118.44 129.665 119.56C128.759 120.28 127.252 120.76 125.145 121C123.039 121.213 121.719 121.547 121.185 122ZM151.983 109.88C151.316 109.88 150.983 110.333 150.983 111.24C150.983 113.133 151.01 114.373 151.063 114.96C151.09 115.28 151.103 115.6 151.103 115.92C151.13 116.24 151.303 116.48 151.623 116.64C151.676 116.667 151.823 116.693 152.063 116.72C152.943 116.72 153.636 116.32 154.143 115.52C154.596 114.8 154.823 113.987 154.823 113.08C154.823 110.947 153.876 109.88 151.983 109.88ZM152.223 122C152.916 126.16 153.516 128.587 154.023 129.28C154.37 129.653 154.73 130.053 155.103 130.48C155.476 130.907 155.663 131.333 155.663 131.76C155.663 133.413 155.396 134.547 154.863 135.16C154.33 135.773 153.303 136.147 151.783 136.28C151.01 136.493 149.983 136.6 148.703 136.6C147.423 136.6 145.97 136.493 144.343 136.28C142.53 136.093 141.303 135.693 140.663 135.08C140.05 134.467 139.743 133.453 139.743 132.04C139.743 131.64 139.983 131.2 140.463 130.72C141.076 130.133 141.436 129.747 141.543 129.56C142.316 128.013 143.09 123.76 143.863 116.8V114.16C143.89 112.56 143.556 111.48 142.863 110.92C142.623 110.787 142.29 110.587 141.863 110.32C141.543 110 141.383 109.547 141.383 108.96C141.383 107.867 142.076 107.053 143.463 106.52C144.61 106.067 146.023 105.853 147.703 105.88C148.183 105.907 148.37 105.92 148.263 105.92C148.476 105.893 148.783 105.88 149.183 105.88C149.343 105.853 150.01 105.787 151.183 105.68C151.983 105.627 152.796 105.613 153.623 105.64C159.783 105.88 162.863 108.533 162.863 113.6C162.863 116.453 162.143 118.44 160.703 119.56C159.796 120.28 158.29 120.76 156.183 121C154.076 121.213 152.756 121.547 152.223 122ZM174.78 115.8C174.754 113.107 174.394 111.48 173.7 110.92C173.46 110.787 173.127 110.587 172.7 110.32C172.38 110 172.22 109.547 172.22 108.96C172.22 107.867 172.914 107.053 174.3 106.52C175.447 106.067 176.86 105.853 178.54 105.88C180.914 105.907 182.58 106.187 183.54 106.72C184.367 107.147 184.78 107.8 184.78 108.68C184.78 109.213 184.647 109.6 184.38 109.84C184.14 110.08 183.887 110.307 183.62 110.52C183.354 110.733 183.154 111.027 183.02 111.4C182.54 112.573 182.3 114.36 182.3 116.76V116.96C182.54 119.253 182.914 121.667 183.42 124.2C183.954 127.053 184.42 128.747 184.82 129.28C185.167 129.653 185.527 130.053 185.9 130.48C186.3 130.907 186.5 131.333 186.5 131.76C186.5 133.947 185.94 135.293 184.82 135.8C183.967 136.2 181.687 136.4 177.98 136.4C174.994 136.4 173.007 136.107 172.02 135.52C171.034 134.907 170.54 133.747 170.54 132.04C170.54 131.64 170.794 131.2 171.3 130.72C171.914 130.133 172.26 129.747 172.34 129.56C172.714 128.813 173.167 126.88 173.7 123.76C174.18 120.96 174.54 118.307 174.78 115.8ZM207.651 122.44C207.651 123.107 207.891 124.333 208.371 126.12C208.877 127.88 209.264 128.947 209.531 129.32C209.824 129.693 210.131 130.067 210.451 130.44C210.851 130.893 211.091 131.333 211.171 131.76C211.251 132.293 211.291 132.773 211.291 133.2C211.291 134.373 210.864 135.2 210.011 135.68C209.317 136.053 208.077 136.28 206.291 136.36C205.464 136.467 203.664 136.52 200.891 136.52C199.824 136.52 198.731 136.307 197.611 135.88C196.624 135.533 195.971 135.04 195.651 134.4C195.357 133.947 195.211 133.413 195.211 132.8C195.211 132.693 195.211 132.587 195.211 132.48C195.211 132.347 195.211 132.2 195.211 132.04C195.211 131.693 195.384 131.333 195.731 130.96C196.024 130.667 196.331 130.36 196.651 130.04C197.451 127 198.024 124.173 198.371 121.56C198.664 119.453 198.864 117.533 198.971 115.8C199.131 113.267 198.771 111.64 197.891 110.92C197.651 110.787 197.317 110.587 196.891 110.32C196.571 110 196.411 109.547 196.411 108.96C196.411 107.867 197.104 107.053 198.491 106.52C199.611 106.067 201.024 105.853 202.731 105.88C205.637 105.933 207.504 106.347 208.331 107.12C209.584 107.947 210.717 109.92 211.731 113.04C212.851 116.4 213.944 118.6 215.011 119.64C215.277 119.88 215.571 119.947 215.891 119.84C216.211 119.44 216.371 118.853 216.371 118.08C216.371 117.787 216.331 117.333 216.251 116.72C216.251 116.667 216.251 116.6 216.251 116.52L216.211 116.44C216.131 115.8 216.037 115.12 215.931 114.4C215.477 112.907 214.744 111.747 213.731 110.92C213.491 110.787 213.157 110.587 212.731 110.32C212.437 110 212.291 109.547 212.291 108.96C212.291 107.867 212.984 107.053 214.371 106.52C215.491 106.067 216.904 105.853 218.611 105.88C220.957 105.907 222.624 106.187 223.611 106.72C224.411 107.147 224.811 107.8 224.811 108.68C224.811 109.213 224.691 109.6 224.451 109.84C224.211 110.08 223.957 110.307 223.691 110.52C223.424 110.733 223.211 111.027 223.051 111.4C222.731 111.96 222.411 112.533 222.091 113.12C221.611 114.107 221.371 115.213 221.371 116.44C221.371 116.387 221.371 116.56 221.371 116.96C221.424 118.427 221.837 120.64 222.611 123.6C223.331 126.427 223.691 128.627 223.691 130.2C223.691 132.28 223.517 133.72 223.171 134.52C222.611 135.773 221.451 136.4 219.691 136.4C217.744 136.4 215.984 135.133 214.411 132.6C214.011 131.933 212.917 129.587 211.131 125.56C210.011 123.027 208.997 121.76 208.091 121.76C207.797 121.76 207.651 121.987 207.651 122.44ZM251.086 120.52C251.086 120.28 250.819 119.96 250.286 119.56C249.753 119.16 249.486 118.76 249.486 118.36C249.486 117.24 250.979 116.68 253.966 116.68C253.939 116.68 254.179 116.667 254.686 116.64C255.193 116.587 255.659 116.56 256.086 116.56C258.273 116.56 259.393 117 259.446 117.88C259.473 118.467 259.286 119.013 258.886 119.52C258.326 120.24 258.006 120.667 257.926 120.8C257.553 121.707 257.446 122.6 257.606 123.48C258.193 126.653 258.486 128.84 258.486 130.04C258.486 130.573 258.406 130.92 258.246 131.08C257.873 131.453 257.326 131.707 256.606 131.84C255.886 131.973 255.459 132.093 255.326 132.2C253.033 134.013 251.579 135.08 250.966 135.4C249.633 136.067 247.753 136.4 245.326 136.4C241.673 136.4 238.686 134.733 236.366 131.4C234.286 128.44 233.246 125.04 233.246 121.2C233.246 117.333 234.366 113.853 236.606 110.76C239.086 107.32 242.219 105.6 246.006 105.6C246.566 105.6 247.366 105.733 248.406 106C249.473 106.267 250.259 106.4 250.766 106.4C251.033 106.4 251.433 106.28 251.966 106.04C252.499 105.8 252.899 105.68 253.166 105.68C254.019 105.68 254.659 106.173 255.086 107.16C255.406 107.907 255.566 108.747 255.566 109.68C255.566 111.28 255.446 112.413 255.206 113.08C254.779 114.2 253.899 114.76 252.566 114.76C251.499 114.76 250.726 114.413 250.246 113.72C249.899 113.053 249.566 112.387 249.246 111.72C248.739 111.027 247.939 110.68 246.846 110.68C245.619 110.68 244.553 111.333 243.646 112.64C242.793 113.84 242.366 115.067 242.366 116.32C242.366 118.16 243.139 119.56 244.686 120.52C245.939 121.267 247.526 121.64 249.446 121.64C250.539 121.64 251.086 121.267 251.086 120.52Z" fill="#FFDDDD"/>
</g>
<g filter="url(#filter3_d_204_7884)">
<path d="M74.5484 60.84V60.8C74.5218 58.1067 74.1618 56.48 73.4684 55.92C73.2284 55.7867 72.8951 55.5867 72.4684 55.32C72.1484 55 71.9884 54.5467 71.9884 53.96C71.9884 52.8667 72.6818 52.0533 74.0684 51.52C75.2151 51.0667 76.6284 50.8533 78.3084 50.88C78.4418 50.88 78.6418 50.8933 78.9084 50.92C79.1484 50.92 79.3351 50.92 79.4684 50.92C79.2818 50.92 80.2018 50.92 82.2284 50.92C83.1618 50.92 84.5351 50.8133 86.3484 50.6C88.1618 50.36 89.4951 50.24 90.3484 50.24C91.4684 50.24 92.3484 50.96 92.9884 52.4C93.4951 53.52 93.7484 54.7333 93.7484 56.04C93.7484 56.8667 93.5751 57.56 93.2284 58.12C92.8284 58.8133 92.2551 59.16 91.5084 59.16C90.8684 59.16 90.3218 58.8 89.8684 58.08C89.2018 56.9867 88.7218 56.32 88.4284 56.08C87.6284 55.36 86.4818 55.0133 84.9884 55.04C83.1484 55.0933 82.2284 55.6 82.2284 56.56C82.2284 57.5467 82.6151 58.3067 83.3884 58.84C84.0818 59.2933 84.9484 59.52 85.9884 59.52C86.2018 59.52 86.4818 59.4 86.8284 59.16C87.1751 58.8933 87.4684 58.76 87.7084 58.76C88.1351 58.76 88.3484 60.3467 88.3484 63.52C88.3484 63.92 88.2284 64.28 87.9884 64.6C87.7484 64.92 87.4284 65.08 87.0284 65.08C86.7351 65.08 86.2684 64.72 85.6284 64C84.9884 63.28 84.2818 62.92 83.5084 62.92C82.8951 62.92 82.5084 63.12 82.3484 63.52C82.2684 63.7333 82.2151 64.24 82.1884 65.04C82.0818 68.3467 82.3618 71.4 83.0284 74.2C83.1618 74.8133 83.8951 75.7467 85.2284 77C86.4284 78.1467 86.9884 79.1333 86.9084 79.96C86.8284 80.84 85.9751 81.28 84.3484 81.28C83.9218 81.28 83.2951 81.24 82.4684 81.16C81.6418 81.1067 81.0551 81.08 80.7084 81.08L73.1884 81.16C71.8284 81.16 71.1484 80.4933 71.1484 79.16C71.1484 78.6267 71.4684 77.9867 72.1084 77.24C72.6151 76.68 73.1218 76.12 73.6284 75.56C74.3751 74.6533 74.7351 73.6 74.7084 72.4L74.5484 60.84ZM112.925 55C112.578 55 112.258 55.1333 111.965 55.4C111.698 55.64 111.591 55.9333 111.645 56.28L111.965 60.4C112.018 61.0933 112.258 61.44 112.685 61.44C113.485 61.44 114.125 61.0533 114.605 60.28C115.031 59.5867 115.245 58.8133 115.245 57.96C115.245 55.9867 114.471 55 112.925 55ZM112.805 67.4C113.365 71.1867 113.938 73.48 114.525 74.28C114.871 74.6533 115.231 75.0533 115.605 75.48C115.978 75.9067 116.165 76.3333 116.165 76.76C116.165 78.9467 115.618 80.2933 114.525 80.8C113.671 81.2 111.391 81.4 107.685 81.4C104.645 81.4 102.618 81.12 101.605 80.56C100.618 79.9733 100.165 78.8 100.245 77.04C100.271 76.64 100.525 76.2 101.005 75.72C101.591 75.1333 101.938 74.7467 102.045 74.56C102.418 73.8133 102.871 71.88 103.405 68.76C103.885 65.96 104.245 63.3067 104.485 60.8C104.405 58.08 104.045 56.4533 103.405 55.92C103.165 55.7867 102.831 55.5867 102.405 55.32C102.085 55 101.925 54.5467 101.925 53.96C101.925 52.8667 102.618 52.0533 104.005 51.52C105.125 51.0667 106.538 50.8533 108.245 50.88C108.858 50.9067 109.418 50.9333 109.925 50.96C112.298 50.8533 113.791 50.8 114.405 50.8C116.618 50.8 118.565 51.24 120.245 52.12C122.325 53.1867 123.365 54.7333 123.365 56.76C123.365 59.2933 122.005 61.3067 119.285 62.8C119.551 63.6267 120.125 64.24 121.005 64.64C122.311 65.2267 122.978 65.52 123.005 65.52C124.098 66.4267 124.911 67.3733 125.445 68.36C125.925 69.24 126.325 70.4267 126.645 71.92C127.098 74.1333 127.778 76.0133 128.685 77.56C128.738 77.6667 129.085 78.0533 129.725 78.72C130.205 79.2267 130.445 79.6533 130.445 80C130.445 80.2667 130.218 80.5333 129.765 80.8C129.445 80.9867 129.125 81.1867 128.805 81.4C128.325 81.4267 127.538 81.5333 126.445 81.72C125.538 81.88 124.765 81.96 124.125 81.96C121.351 81.96 119.445 80.8667 118.405 78.68C117.898 77.6133 117.418 75.36 116.965 71.92C116.565 69.04 115.885 67.1733 114.925 66.32C114.605 66.0533 114.218 65.9733 113.765 66.08C113.018 66.2667 112.698 66.7067 112.805 67.4ZM142.05 58.56C141.89 57.1733 141.57 56.2933 141.09 55.92C140.85 55.7867 140.517 55.5867 140.09 55.32C139.77 55 139.61 54.5467 139.61 53.96C139.61 52.8667 140.304 52.0533 141.69 51.52C142.837 51.0667 144.25 50.8533 145.93 50.88C146.25 50.88 146.73 50.9067 147.37 50.96C148.037 51.0133 148.544 51.04 148.89 51.04C149.797 51.04 151.277 50.9733 153.33 50.84C155.384 50.7067 156.837 50.64 157.69 50.64C158.837 50.64 159.73 51.36 160.37 52.8C160.85 53.92 161.09 55.1333 161.09 56.44C161.09 57.2667 160.93 57.96 160.61 58.52C160.184 59.2133 159.597 59.56 158.85 59.56C158.13 59.56 157.517 59.2267 157.01 58.56C156.264 57.5733 155.69 56.9467 155.29 56.68C154.304 55.9867 152.85 55.64 150.93 55.64C150.37 55.64 150.077 55.64 150.05 55.64C149.784 55.7467 149.597 56.0667 149.49 56.6C149.437 56.7867 149.41 56.9733 149.41 57.16C149.41 58.04 149.85 58.76 150.73 59.32C151.504 59.8 152.424 60.04 153.49 60.04C153.704 60.04 153.957 59.8933 154.25 59.6C154.57 59.3067 154.837 59.16 155.05 59.16C155.45 59.16 155.65 59.4533 155.65 60.04C155.65 60.9733 155.53 61.8667 155.29 62.72C154.944 63.92 154.437 64.52 153.77 64.52C153.344 64.52 152.93 64.1867 152.53 63.52C152.157 62.8533 151.597 62.52 150.85 62.52C149.997 62.52 149.57 63.2267 149.57 64.64C149.57 67.9733 151.504 69.64 155.37 69.64C155.53 69.64 155.784 69.6 156.13 69.52C156.477 69.44 156.744 69.4267 156.93 69.48C157.117 69.5067 157.277 69.52 157.41 69.52C158.077 69.52 158.624 69.2 159.05 68.56C159.504 67.92 159.864 67.6 160.13 67.6C160.53 67.6 160.877 67.8667 161.17 68.4C161.464 68.9333 161.61 69.4267 161.61 69.88C161.61 70.1467 161.637 70.84 161.69 71.96C161.77 73.0533 161.81 73.96 161.81 74.68C161.81 77.9333 161.144 80.04 159.81 81C159.304 81.3467 157.61 81.52 154.73 81.52C153.93 81.52 152.837 81.5333 151.45 81.56C150.304 81.5867 149.184 81.5867 148.09 81.56L140.57 81.52C139.21 81.4933 138.53 80.84 138.53 79.56C138.53 79.0533 138.73 78.6 139.13 78.2C139.797 77.5333 140.17 77.12 140.25 76.96L141.01 75.76C141.384 75.1467 141.61 73.6267 141.69 71.2L142.01 60.88C142.064 60 142.077 59.2267 142.05 58.56ZM173.791 58.56C173.631 57.1733 173.311 56.2933 172.831 55.92C172.591 55.7867 172.258 55.5867 171.831 55.32C171.511 55 171.351 54.5467 171.351 53.96C171.351 52.8667 172.044 52.0533 173.431 51.52C174.578 51.0667 175.991 50.8533 177.671 50.88C177.991 50.88 178.471 50.9067 179.111 50.96C179.778 51.0133 180.284 51.04 180.631 51.04C181.538 51.04 183.018 50.9733 185.071 50.84C187.124 50.7067 188.578 50.64 189.431 50.64C190.578 50.64 191.471 51.36 192.111 52.8C192.591 53.92 192.831 55.1333 192.831 56.44C192.831 57.2667 192.671 57.96 192.351 58.52C191.924 59.2133 191.338 59.56 190.591 59.56C189.871 59.56 189.258 59.2267 188.751 58.56C188.004 57.5733 187.431 56.9467 187.031 56.68C186.044 55.9867 184.591 55.64 182.671 55.64C182.111 55.64 181.818 55.64 181.791 55.64C181.524 55.7467 181.338 56.0667 181.231 56.6C181.178 56.7867 181.151 56.9733 181.151 57.16C181.151 58.04 181.591 58.76 182.471 59.32C183.244 59.8 184.164 60.04 185.231 60.04C185.444 60.04 185.698 59.8933 185.991 59.6C186.311 59.3067 186.578 59.16 186.791 59.16C187.191 59.16 187.391 59.4533 187.391 60.04C187.391 60.9733 187.271 61.8667 187.031 62.72C186.684 63.92 186.178 64.52 185.511 64.52C185.084 64.52 184.671 64.1867 184.271 63.52C183.898 62.8533 183.338 62.52 182.591 62.52C181.738 62.52 181.311 63.2267 181.311 64.64C181.311 67.9733 183.244 69.64 187.111 69.64C187.271 69.64 187.524 69.6 187.871 69.52C188.218 69.44 188.484 69.4267 188.671 69.48C188.858 69.5067 189.018 69.52 189.151 69.52C189.818 69.52 190.364 69.2 190.791 68.56C191.244 67.92 191.604 67.6 191.871 67.6C192.271 67.6 192.618 67.8667 192.911 68.4C193.204 68.9333 193.351 69.4267 193.351 69.88C193.351 70.1467 193.378 70.84 193.431 71.96C193.511 73.0533 193.551 73.96 193.551 74.68C193.551 77.9333 192.884 80.04 191.551 81C191.044 81.3467 189.351 81.52 186.471 81.52C185.671 81.52 184.578 81.5333 183.191 81.56C182.044 81.5867 180.924 81.5867 179.831 81.56L172.311 81.52C170.951 81.4933 170.271 80.84 170.271 79.56C170.271 79.0533 170.471 78.6 170.871 78.2C171.538 77.5333 171.911 77.12 171.991 76.96L172.751 75.76C173.124 75.1467 173.351 73.6267 173.431 71.2L173.751 60.88C173.804 60 173.818 59.2267 173.791 58.56ZM16.037 126.44C17.877 126.44 18.797 125.56 18.797 123.8C18.797 123.213 18.1837 122.4 16.957 121.36C15.117 119.76 14.0104 118.747 13.637 118.32C12.4104 116.96 11.797 115.6 11.797 114.24C11.797 111.813 12.7704 109.893 14.717 108.48C16.4504 107.227 18.5704 106.6 21.077 106.6C21.877 106.6 23.0237 106.747 24.517 107.04C26.037 107.333 27.2104 107.48 28.037 107.48C29.477 107.48 30.197 109.133 30.197 112.44C30.197 114.333 29.4504 115.28 27.957 115.28C26.917 115.28 25.917 114.52 24.957 113C24.0237 111.48 23.117 110.72 22.237 110.72C20.2904 110.72 19.317 111.427 19.317 112.84C19.317 113.667 20.4104 114.6 22.597 115.64C25.557 117.027 27.5704 118.187 28.637 119.12C30.8237 121.013 31.917 123.44 31.917 126.4C31.917 129.627 30.8637 132.28 28.757 134.36C26.677 136.44 24.037 137.48 20.837 137.48C17.557 137.48 14.8904 136.68 12.837 135.08C10.5704 133.347 9.43703 130.88 9.43703 127.68C9.43703 126.08 10.2637 125.28 11.917 125.28C12.4504 125.28 12.997 125.48 13.557 125.88C14.1437 126.253 14.9704 126.44 16.037 126.44ZM55.6848 132.76C55.6848 134.68 55.1782 135.987 54.1648 136.68C53.4182 137.213 52.1782 137.48 50.4448 137.48C50.1248 137.48 49.5915 137.467 48.8448 137.44C48.1248 137.413 47.5648 137.4 47.1648 137.4C44.6315 137.4 42.9382 137.24 42.0848 136.92C40.5115 136.333 39.7248 135.04 39.7248 133.04C39.7248 132.64 39.9648 132.2 40.4448 131.72C41.0848 131.133 41.4448 130.747 41.5248 130.56C42.2448 129.227 42.8315 126.52 43.2848 122.44C43.6848 118.68 43.9248 116.8 44.0048 116.8L44.0448 115.28C44.0715 113.867 43.8715 112.867 43.4448 112.28C43.3382 112.147 42.9248 111.867 42.2048 111.44C41.7515 111.173 41.5248 110.68 41.5248 109.96C41.5248 108.813 42.2715 107.973 43.7648 107.44C44.8048 107.067 46.0582 106.88 47.5248 106.88C51.8982 106.88 54.0848 107.813 54.0848 109.68C54.0848 110.24 53.7248 110.867 53.0048 111.56C52.2848 112.253 51.9248 112.987 51.9248 113.76C51.9248 114.8 52.3115 115.467 53.0848 115.76C53.4582 115.893 54.2848 115.96 55.5648 115.96C56.7915 115.96 57.5382 115.92 57.8048 115.84C58.5782 115.627 58.9648 115.08 58.9648 114.2C58.9648 112.947 58.5915 112.12 57.8448 111.72C57.1248 111.293 56.7648 110.707 56.7648 109.96C56.7648 108.813 57.4982 107.973 58.9648 107.44C60.0315 107.067 61.2848 106.88 62.7248 106.88C67.0982 106.88 69.2848 107.813 69.2848 109.68C69.2848 110.027 69.0715 110.467 68.6448 111C68.0848 111.693 67.6848 112.36 67.4448 113C67.0182 114.12 66.8048 115.573 66.8048 117.36C66.8048 120.933 67.5782 125.253 69.1248 130.32C70.6182 131.92 71.3648 133.213 71.3648 134.2C71.3648 136.2 68.7115 137.2 63.4048 137.2C60.8982 137.2 59.3915 137.147 58.8848 137.04C57.1782 136.64 56.3248 135.64 56.3248 134.04C56.3248 133.48 56.6582 132.893 57.3248 132.28C57.9915 131.64 58.3248 131.16 58.3248 130.84C58.3248 129.933 58.2182 128.573 58.0048 126.76C57.7915 124.947 57.6848 123.573 57.6848 122.64C57.6848 122 57.5782 121.547 57.3648 121.28C57.1782 120.987 56.7648 120.84 56.1248 120.84C54.7915 120.84 53.9782 121.253 53.6848 122.08C53.5248 122.453 53.4448 123.48 53.4448 125.16C53.4448 127.587 53.5115 129.04 53.6448 129.52C53.7515 129.893 54.1382 130.44 54.8048 131.16C55.3915 131.773 55.6848 132.307 55.6848 132.76ZM84.0352 116.8C84.0085 114.107 83.6485 112.48 82.9552 111.92C82.7152 111.787 82.3818 111.587 81.9552 111.32C81.6352 111 81.4752 110.547 81.4752 109.96C81.4752 108.867 82.1685 108.053 83.5552 107.52C84.7018 107.067 86.1152 106.853 87.7952 106.88C90.1685 106.907 91.8352 107.187 92.7952 107.72C93.6218 108.147 94.0352 108.8 94.0352 109.68C94.0352 110.213 93.9018 110.6 93.6352 110.84C93.3952 111.08 93.1418 111.307 92.8752 111.52C92.6085 111.733 92.4085 112.027 92.2752 112.4C91.7952 113.573 91.5552 115.36 91.5552 117.76V117.96C91.7952 120.253 92.1685 122.667 92.6752 125.2C93.2085 128.053 93.6752 129.747 94.0752 130.28C94.4218 130.653 94.7818 131.053 95.1552 131.48C95.5552 131.907 95.7552 132.333 95.7552 132.76C95.7552 134.947 95.1952 136.293 94.0752 136.8C93.2218 137.2 90.9418 137.4 87.2352 137.4C84.2485 137.4 82.2618 137.107 81.2752 136.52C80.2885 135.907 79.7952 134.747 79.7952 133.04C79.7952 132.64 80.0485 132.2 80.5552 131.72C81.1685 131.133 81.5152 130.747 81.5952 130.56C81.9685 129.813 82.4218 127.88 82.9552 124.76C83.4352 121.96 83.7952 119.307 84.0352 116.8ZM116.945 110.88C116.279 110.88 115.945 111.333 115.945 112.24C115.945 114.133 115.972 115.373 116.025 115.96C116.052 116.28 116.065 116.6 116.065 116.92C116.092 117.24 116.265 117.48 116.585 117.64C116.639 117.667 116.785 117.693 117.025 117.72C117.905 117.72 118.599 117.32 119.105 116.52C119.559 115.8 119.785 114.987 119.785 114.08C119.785 111.947 118.839 110.88 116.945 110.88ZM117.185 123C117.879 127.16 118.479 129.587 118.985 130.28C119.332 130.653 119.692 131.053 120.065 131.48C120.439 131.907 120.625 132.333 120.625 132.76C120.625 134.413 120.359 135.547 119.825 136.16C119.292 136.773 118.265 137.147 116.745 137.28C115.972 137.493 114.945 137.6 113.665 137.6C112.385 137.6 110.932 137.493 109.305 137.28C107.492 137.093 106.265 136.693 105.625 136.08C105.012 135.467 104.705 134.453 104.705 133.04C104.705 132.64 104.945 132.2 105.425 131.72C106.039 131.133 106.399 130.747 106.505 130.56C107.279 129.013 108.052 124.76 108.825 117.8V115.16C108.852 113.56 108.519 112.48 107.825 111.92C107.585 111.787 107.252 111.587 106.825 111.32C106.505 111 106.345 110.547 106.345 109.96C106.345 108.867 107.039 108.053 108.425 107.52C109.572 107.067 110.985 106.853 112.665 106.88C113.145 106.907 113.332 106.92 113.225 106.92C113.439 106.893 113.745 106.88 114.145 106.88C114.305 106.853 114.972 106.787 116.145 106.68C116.945 106.627 117.759 106.613 118.585 106.64C124.745 106.88 127.825 109.533 127.825 114.6C127.825 117.453 127.105 119.44 125.665 120.56C124.759 121.28 123.252 121.76 121.145 122C119.039 122.213 117.719 122.547 117.185 123ZM147.983 110.88C147.316 110.88 146.983 111.333 146.983 112.24C146.983 114.133 147.01 115.373 147.063 115.96C147.09 116.28 147.103 116.6 147.103 116.92C147.13 117.24 147.303 117.48 147.623 117.64C147.676 117.667 147.823 117.693 148.063 117.72C148.943 117.72 149.636 117.32 150.143 116.52C150.596 115.8 150.823 114.987 150.823 114.08C150.823 111.947 149.876 110.88 147.983 110.88ZM148.223 123C148.916 127.16 149.516 129.587 150.023 130.28C150.37 130.653 150.73 131.053 151.103 131.48C151.476 131.907 151.663 132.333 151.663 132.76C151.663 134.413 151.396 135.547 150.863 136.16C150.33 136.773 149.303 137.147 147.783 137.28C147.01 137.493 145.983 137.6 144.703 137.6C143.423 137.6 141.97 137.493 140.343 137.28C138.53 137.093 137.303 136.693 136.663 136.08C136.05 135.467 135.743 134.453 135.743 133.04C135.743 132.64 135.983 132.2 136.463 131.72C137.076 131.133 137.436 130.747 137.543 130.56C138.316 129.013 139.09 124.76 139.863 117.8V115.16C139.89 113.56 139.556 112.48 138.863 111.92C138.623 111.787 138.29 111.587 137.863 111.32C137.543 111 137.383 110.547 137.383 109.96C137.383 108.867 138.076 108.053 139.463 107.52C140.61 107.067 142.023 106.853 143.703 106.88C144.183 106.907 144.37 106.92 144.263 106.92C144.476 106.893 144.783 106.88 145.183 106.88C145.343 106.853 146.01 106.787 147.183 106.68C147.983 106.627 148.796 106.613 149.623 106.64C155.783 106.88 158.863 109.533 158.863 114.6C158.863 117.453 158.143 119.44 156.703 120.56C155.796 121.28 154.29 121.76 152.183 122C150.076 122.213 148.756 122.547 148.223 123ZM170.78 116.8C170.754 114.107 170.394 112.48 169.7 111.92C169.46 111.787 169.127 111.587 168.7 111.32C168.38 111 168.22 110.547 168.22 109.96C168.22 108.867 168.914 108.053 170.3 107.52C171.447 107.067 172.86 106.853 174.54 106.88C176.914 106.907 178.58 107.187 179.54 107.72C180.367 108.147 180.78 108.8 180.78 109.68C180.78 110.213 180.647 110.6 180.38 110.84C180.14 111.08 179.887 111.307 179.62 111.52C179.354 111.733 179.154 112.027 179.02 112.4C178.54 113.573 178.3 115.36 178.3 117.76V117.96C178.54 120.253 178.914 122.667 179.42 125.2C179.954 128.053 180.42 129.747 180.82 130.28C181.167 130.653 181.527 131.053 181.9 131.48C182.3 131.907 182.5 132.333 182.5 132.76C182.5 134.947 181.94 136.293 180.82 136.8C179.967 137.2 177.687 137.4 173.98 137.4C170.994 137.4 169.007 137.107 168.02 136.52C167.034 135.907 166.54 134.747 166.54 133.04C166.54 132.64 166.794 132.2 167.3 131.72C167.914 131.133 168.26 130.747 168.34 130.56C168.714 129.813 169.167 127.88 169.7 124.76C170.18 121.96 170.54 119.307 170.78 116.8ZM203.651 123.44C203.651 124.107 203.891 125.333 204.371 127.12C204.877 128.88 205.264 129.947 205.531 130.32C205.824 130.693 206.131 131.067 206.451 131.44C206.851 131.893 207.091 132.333 207.171 132.76C207.251 133.293 207.291 133.773 207.291 134.2C207.291 135.373 206.864 136.2 206.011 136.68C205.317 137.053 204.077 137.28 202.291 137.36C201.464 137.467 199.664 137.52 196.891 137.52C195.824 137.52 194.731 137.307 193.611 136.88C192.624 136.533 191.971 136.04 191.651 135.4C191.357 134.947 191.211 134.413 191.211 133.8C191.211 133.693 191.211 133.587 191.211 133.48C191.211 133.347 191.211 133.2 191.211 133.04C191.211 132.693 191.384 132.333 191.731 131.96C192.024 131.667 192.331 131.36 192.651 131.04C193.451 128 194.024 125.173 194.371 122.56C194.664 120.453 194.864 118.533 194.971 116.8C195.131 114.267 194.771 112.64 193.891 111.92C193.651 111.787 193.317 111.587 192.891 111.32C192.571 111 192.411 110.547 192.411 109.96C192.411 108.867 193.104 108.053 194.491 107.52C195.611 107.067 197.024 106.853 198.731 106.88C201.637 106.933 203.504 107.347 204.331 108.12C205.584 108.947 206.717 110.92 207.731 114.04C208.851 117.4 209.944 119.6 211.011 120.64C211.277 120.88 211.571 120.947 211.891 120.84C212.211 120.44 212.371 119.853 212.371 119.08C212.371 118.787 212.331 118.333 212.251 117.72C212.251 117.667 212.251 117.6 212.251 117.52L212.211 117.44C212.131 116.8 212.037 116.12 211.931 115.4C211.477 113.907 210.744 112.747 209.731 111.92C209.491 111.787 209.157 111.587 208.731 111.32C208.437 111 208.291 110.547 208.291 109.96C208.291 108.867 208.984 108.053 210.371 107.52C211.491 107.067 212.904 106.853 214.611 106.88C216.957 106.907 218.624 107.187 219.611 107.72C220.411 108.147 220.811 108.8 220.811 109.68C220.811 110.213 220.691 110.6 220.451 110.84C220.211 111.08 219.957 111.307 219.691 111.52C219.424 111.733 219.211 112.027 219.051 112.4C218.731 112.96 218.411 113.533 218.091 114.12C217.611 115.107 217.371 116.213 217.371 117.44C217.371 117.387 217.371 117.56 217.371 117.96C217.424 119.427 217.837 121.64 218.611 124.6C219.331 127.427 219.691 129.627 219.691 131.2C219.691 133.28 219.517 134.72 219.171 135.52C218.611 136.773 217.451 137.4 215.691 137.4C213.744 137.4 211.984 136.133 210.411 133.6C210.011 132.933 208.917 130.587 207.131 126.56C206.011 124.027 204.997 122.76 204.091 122.76C203.797 122.76 203.651 122.987 203.651 123.44ZM247.086 121.52C247.086 121.28 246.819 120.96 246.286 120.56C245.753 120.16 245.486 119.76 245.486 119.36C245.486 118.24 246.979 117.68 249.966 117.68C249.939 117.68 250.179 117.667 250.686 117.64C251.193 117.587 251.659 117.56 252.086 117.56C254.273 117.56 255.393 118 255.446 118.88C255.473 119.467 255.286 120.013 254.886 120.52C254.326 121.24 254.006 121.667 253.926 121.8C253.553 122.707 253.446 123.6 253.606 124.48C254.193 127.653 254.486 129.84 254.486 131.04C254.486 131.573 254.406 131.92 254.246 132.08C253.873 132.453 253.326 132.707 252.606 132.84C251.886 132.973 251.459 133.093 251.326 133.2C249.033 135.013 247.579 136.08 246.966 136.4C245.633 137.067 243.753 137.4 241.326 137.4C237.673 137.4 234.686 135.733 232.366 132.4C230.286 129.44 229.246 126.04 229.246 122.2C229.246 118.333 230.366 114.853 232.606 111.76C235.086 108.32 238.219 106.6 242.006 106.6C242.566 106.6 243.366 106.733 244.406 107C245.473 107.267 246.259 107.4 246.766 107.4C247.033 107.4 247.433 107.28 247.966 107.04C248.499 106.8 248.899 106.68 249.166 106.68C250.019 106.68 250.659 107.173 251.086 108.16C251.406 108.907 251.566 109.747 251.566 110.68C251.566 112.28 251.446 113.413 251.206 114.08C250.779 115.2 249.899 115.76 248.566 115.76C247.499 115.76 246.726 115.413 246.246 114.72C245.899 114.053 245.566 113.387 245.246 112.72C244.739 112.027 243.939 111.68 242.846 111.68C241.619 111.68 240.553 112.333 239.646 113.64C238.793 114.84 238.366 116.067 238.366 117.32C238.366 119.16 239.139 120.56 240.686 121.52C241.939 122.267 243.526 122.64 245.446 122.64C246.539 122.64 247.086 122.267 247.086 121.52Z" fill="#120000"/>
</g>
<defs>
<filter id="filter0_ddi_204_7884" x="0" y="0" width="245" height="176" filterUnits="userSpaceOnUse" color-interpolation-filters="sRGB">
<feFlood flood-opacity="0" result="BackgroundImageFix"/>
<feColorMatrix in="SourceAlpha" type="matrix" values="0 0 0 0 0 0 0 0 0 0 0 0 0 0 0 0 0 0 127 0" result="hardAlpha"/>
<feOffset dy="4"/>
<feGaussianBlur stdDeviation="2"/>
<feComposite in2="hardAlpha" operator="out"/>
<feColorMatrix type="matrix" values="0 0 0 0 0 0 0 0 0 0 0 0 0 0 0 0 0 0 0.25 0"/>
<feBlend mode="normal" in2="BackgroundImageFix" result="effect1_dropShadow_204_7884"/>
<feColorMatrix in="SourceAlpha" type="matrix" values="0 0 0 0 0 0 0 0 0 0 0 0 0 0 0 0 0 0 127 0" result="hardAlpha"/>
<feOffset dy="4"/>
<feGaussianBlur stdDeviation="2"/>
<feComposite in2="hardAlpha" operator="out"/>
<feColorMatrix type="matrix" values="0 0 0 0 0 0 0 0 0 0 0 0 0 0 0 0 0 0 0.25 0"/>
<feBlend mode="normal" in2="effect1_dropShadow_204_7884" result="effect2_dropShadow_204_7884"/>
<feBlend mode="normal" in="SourceGraphic" in2="effect2_dropShadow_204_7884" result="shape"/>
<feColorMatrix in="SourceAlpha" type="matrix" values="0 0 0 0 0 0 0 0 0 0 0 0 0 0 0 0 0 0 127 0" result="hardAlpha"/>
<feOffset dy="4"/>
<feGaussianBlur stdDeviation="2"/>
<feComposite in2="hardAlpha" operator="arithmetic" k2="-1" k3="1"/>
<feColorMatrix type="matrix" values="0 0 0 0 0 0 0 0 0 0 0 0 0 0 0 0 0 0 0.25 0"/>
<feBlend mode="normal" in2="shape" result="effect3_innerShadow_204_7884"/>
</filter>
<filter id="filter1_d_204_7884" x="106" y="0" width="98" height="138" filterUnits="userSpaceOnUse" color-interpolation-filters="sRGB">
<feFlood flood-opacity="0" result="BackgroundImageFix"/>
<feColorMatrix in="SourceAlpha" type="matrix" values="0 0 0 0 0 0 0 0 0 0 0 0 0 0 0 0 0 0 127 0" result="hardAlpha"/>
<feOffset dy="4"/>
<feGaussianBlur stdDeviation="2"/>
<feComposite in2="hardAlpha" operator="out"/>
<feColorMatrix type="matrix" values="0 0 0 0 0 0 0 0 0 0 0 0 0 0 0 0 0 0 0.25 0"/>
<feBlend mode="normal" in2="BackgroundImageFix" result="effect1_dropShadow_204_7884"/>
<feBlend mode="normal" in="SourceGraphic" in2="effect1_dropShadow_204_7884" result="shape"/>
</filter>
<filter id="filter2_d_204_7884" x="9.43701" y="49.24" width="254.049" height="95.3601" filterUnits="userSpaceOnUse" color-interpolation-filters="sRGB">
<feFlood flood-opacity="0" result="BackgroundImageFix"/>
<feColorMatrix in="SourceAlpha" type="matrix" values="0 0 0 0 0 0 0 0 0 0 0 0 0 0 0 0 0 0 127 0" result="hardAlpha"/>
<feOffset dy="4"/>
<feGaussianBlur stdDeviation="2"/>
<feComposite in2="hardAlpha" operator="out"/>
<feColorMatrix type="matrix" values="0 0 0 0 0 0 0 0 0 0 0 0 0 0 0 0 0 0 0.25 0"/>
<feBlend mode="normal" in2="BackgroundImageFix" result="effect1_dropShadow_204_7884"/>
<feBlend mode="normal" in="SourceGraphic" in2="effect1_dropShadow_204_7884" result="shape"/>
</filter>
<filter id="filter3_d_204_7884" x="5.43701" y="50.24" width="254.049" height="95.3601" filterUnits="userSpaceOnUse" color-interpolation-filters="sRGB">
<feFlood flood-opacity="0" result="BackgroundImageFix"/>
<feColorMatrix in="SourceAlpha" type="matrix" values="0 0 0 0 0 0 0 0 0 0 0 0 0 0 0 0 0 0 127 0" result="hardAlpha"/>
<feOffset dy="4"/>
<feGaussianBlur stdDeviation="2"/>
<feComposite in2="hardAlpha" operator="out"/>
<feColorMatrix type="matrix" values="0 0 0 0 0 0 0 0 0 0 0 0 0 0 0 0 0 0 0.25 0"/>
<feBlend mode="normal" in2="BackgroundImageFix" result="effect1_dropShadow_204_7884"/>
<feBlend mode="normal" in="SourceGraphic" in2="effect1_dropShadow_204_7884" result="shape"/>
</filter>
</defs>
</svg>
