<svg width="300" height="300" viewBox="0 0 300 300" fill="none" xmlns="http://www.w3.org/2000/svg">
<path d="M196.375 158.875C208.63 149.233 217.575 136.012 221.965 121.049C226.356 106.087 225.974 90.1283 220.872 75.3933C215.771 60.6583 206.203 47.8799 193.501 38.8357C180.799 29.7915 165.593 24.9313 150 24.9313C134.407 24.9313 119.201 29.7915 106.499 38.8357C93.7968 47.8799 84.2293 60.6583 79.1276 75.3933C74.026 90.1283 73.6439 106.087 78.0345 121.049C82.4251 136.012 91.3701 149.233 103.625 158.875C82.6259 167.288 64.3035 181.242 50.6111 199.249C36.9187 217.256 28.3695 238.641 25.875 261.125C25.6944 262.766 25.8389 264.428 26.3003 266.013C26.7616 267.599 27.5308 269.078 28.5639 270.367C30.6502 272.969 33.6848 274.635 37 275C40.3152 275.365 43.6395 274.397 46.2415 272.311C48.8436 270.225 50.5103 267.19 50.875 263.875C53.6198 239.44 65.271 216.873 83.6027 200.485C101.934 184.097 125.661 175.038 150.25 175.038C174.839 175.038 198.566 184.097 216.897 200.485C235.229 216.873 246.88 239.44 249.625 263.875C249.965 266.946 251.43 269.783 253.739 271.838C256.047 273.892 259.035 275.019 262.125 275H263.5C266.777 274.623 269.772 272.966 271.832 270.391C273.892 267.815 274.851 264.53 274.5 261.25C271.994 238.703 263.398 217.262 249.636 199.228C235.873 181.193 217.461 167.243 196.375 158.875ZM150 150C140.111 150 130.444 147.068 122.221 141.573C113.999 136.079 107.59 128.27 103.806 119.134C100.022 109.998 99.0314 99.9445 100.961 90.2455C102.89 80.5464 107.652 71.6373 114.645 64.6446C121.637 57.652 130.546 52.89 140.245 50.9607C149.944 49.0315 159.998 50.0216 169.134 53.806C178.27 57.5904 186.079 63.999 191.573 72.2215C197.068 80.4439 200 90.1109 200 100C200 113.261 194.732 125.978 185.355 135.355C175.978 144.732 163.261 150 150 150Z" fill="#504744"/>
</svg>
