<svg width="300" height="300" viewBox="0 0 300 300" fill="none" xmlns="http://www.w3.org/2000/svg">
<path d="M179.963 240.196C183.955 240.196 187.785 238.62 190.608 235.817C193.431 233.013 195.017 229.21 195.017 225.245V195.343C195.017 191.378 193.431 187.575 190.608 184.771C187.785 181.967 183.955 180.392 179.963 180.392C175.97 180.392 172.141 181.967 169.318 184.771C166.495 187.575 164.909 191.378 164.909 195.343V225.245C164.909 229.21 166.495 233.013 169.318 235.817C172.141 238.62 175.97 240.196 179.963 240.196ZM119.746 240.196C123.739 240.196 127.568 238.62 130.391 235.817C133.214 233.013 134.8 229.21 134.8 225.245V195.343C134.8 191.378 133.214 187.575 130.391 184.771C127.568 181.967 123.739 180.392 119.746 180.392C115.754 180.392 111.925 181.967 109.101 184.771C106.278 187.575 104.692 191.378 104.692 195.343V225.245C104.692 229.21 106.278 233.013 109.101 235.817C111.925 238.62 115.754 240.196 119.746 240.196ZM255.234 60.7843H234.459L208.415 9.20349C207.619 7.30551 206.438 5.59095 204.945 4.16693C203.452 2.74292 201.679 1.64006 199.737 0.927273C197.795 0.21449 195.726 -0.0928979 193.66 0.0243206C191.593 0.141539 189.573 0.680846 187.725 1.60853C185.878 2.53622 184.243 3.83236 182.923 5.41594C181.602 6.99952 180.625 8.83651 180.052 10.8121C179.479 12.7877 179.322 14.8595 179.592 16.8979C179.861 18.9364 180.551 20.8977 181.619 22.6593L200.738 60.7843H98.9716L118.09 22.6593C119.552 19.1744 119.631 15.2694 118.313 11.7285C116.996 8.18758 114.378 5.27284 110.986 3.56946C107.594 1.86608 103.678 1.50018 100.026 2.54522C96.3731 3.59026 93.2538 5.96886 91.294 9.20349L65.2504 60.7843H44.4757C33.8352 60.945 23.5937 64.8322 15.5574 71.7602C7.52112 78.6883 2.20628 88.2122 0.550274 98.6521C-1.10573 109.092 1.00349 119.778 6.50592 128.824C12.0084 137.87 20.5505 144.696 30.6259 148.098L41.7659 259.632C42.8893 270.734 48.139 281.022 56.4899 288.486C64.8409 295.95 75.6934 300.055 86.9283 299.999H213.082C224.317 300.055 235.169 295.95 243.52 288.486C251.871 281.022 257.121 270.734 258.244 259.632L269.384 148.098C279.482 144.686 288.037 137.835 293.536 128.758C299.034 119.682 301.121 108.966 299.426 98.5077C297.731 88.0496 292.364 78.5249 284.275 71.6203C276.187 64.7158 265.899 60.8771 255.234 60.7843ZM227.986 256.642C227.611 260.342 225.861 263.772 223.078 266.26C220.294 268.748 216.676 270.116 212.931 270.098H86.7778C83.0328 270.116 79.4153 268.748 76.6317 266.26C73.848 263.772 72.0981 260.342 71.7236 256.642L61.0352 150.49H238.674L227.986 256.642ZM255.234 120.588H44.4757C40.4831 120.588 36.654 119.013 33.8308 116.209C31.0076 113.405 29.4215 109.602 29.4215 105.637C29.4215 101.672 31.0076 97.869 33.8308 95.0652C36.654 92.2613 40.4831 90.6862 44.4757 90.6862H255.234C259.226 90.6862 263.055 92.2613 265.878 95.0652C268.702 97.869 270.288 101.672 270.288 105.637C270.288 109.602 268.702 113.405 265.878 116.209C263.055 119.013 259.226 120.588 255.234 120.588Z" fill="#504744"/>
</svg>
