<svg width="391" height="396" viewBox="0 0 391 396" fill="none" xmlns="http://www.w3.org/2000/svg">
<path d="M343.265 277.695L309.542 242.715C302.288 235.731 293.137 231.104 283.267 229.428C273.396 227.752 263.256 229.104 254.15 233.31L239.488 218.46C256.766 195.078 264.657 165.935 261.572 136.898C258.487 107.86 244.655 81.0846 222.861 61.9607C201.067 42.8368 172.929 32.7847 144.111 33.8279C115.293 34.8712 87.9351 46.9323 67.5448 67.5834C47.1545 88.2344 35.2456 115.942 34.2156 145.128C33.1855 174.315 43.1107 202.813 61.9931 224.885C80.8755 246.958 107.313 260.967 135.984 264.091C164.655 267.216 193.43 259.224 216.516 241.725L231.016 256.41C226.374 265.644 224.711 276.12 226.26 286.362C227.809 296.605 232.493 306.096 239.65 313.5L274.189 348.48C283.353 357.75 295.775 362.956 308.727 362.956C321.679 362.956 334.101 357.75 343.265 348.48C347.921 343.87 351.619 338.364 354.145 332.287C356.67 326.209 357.971 319.681 357.971 313.087C357.971 306.493 356.67 299.966 354.145 293.888C351.619 287.81 347.921 282.305 343.265 277.695ZM205.112 207.735C193.712 219.252 179.197 227.088 163.401 230.255C147.606 233.421 131.238 231.775 116.365 225.525C101.492 219.275 88.7825 208.7 79.8408 195.138C70.8992 181.575 66.1269 165.633 66.1269 149.325C66.1269 133.017 70.8992 117.075 79.8408 103.512C88.7825 89.9495 101.492 79.3751 116.365 73.1248C131.238 66.8744 147.606 65.2285 163.401 68.3949C179.197 71.5613 193.712 79.3979 205.112 90.9149C212.698 98.5784 218.717 107.682 222.823 117.705C226.93 127.728 229.044 138.473 229.044 149.325C229.044 160.176 226.93 170.921 222.823 180.944C218.717 190.967 212.698 200.071 205.112 207.735ZM320.294 324.39C318.78 325.936 316.978 327.164 314.993 328.002C313.007 328.839 310.878 329.271 308.727 329.271C306.576 329.271 304.447 328.839 302.462 328.002C300.476 327.164 298.675 325.936 297.16 324.39L262.622 289.41C261.095 287.876 259.883 286.051 259.056 284.04C258.229 282.03 257.803 279.873 257.803 277.695C257.803 275.517 258.229 273.36 259.056 271.349C259.883 269.339 261.095 267.514 262.622 265.98C264.136 264.433 265.938 263.206 267.923 262.368C269.909 261.53 272.038 261.099 274.189 261.099C276.34 261.099 278.469 261.53 280.454 262.368C282.44 263.206 284.241 264.433 285.756 265.98L320.294 300.96C321.821 302.494 323.033 304.319 323.86 306.329C324.687 308.34 325.113 310.497 325.113 312.675C325.113 314.853 324.687 317.01 323.86 319.02C323.033 321.031 321.821 322.856 320.294 324.39Z" fill="#504744"/>
</svg>
